<?xml version="1.0" encoding="utf-8" standalone="no"?>
<!DOCTYPE svg PUBLIC "-//W3C//DTD SVG 1.1//EN"
  "http://www.w3.org/Graphics/SVG/1.1/DTD/svg11.dtd">
<!-- Created with matplotlib (https://matplotlib.org/) -->
<svg height="345.6pt" version="1.1" viewBox="0 0 460.8 345.6" width="460.8pt" xmlns="http://www.w3.org/2000/svg" xmlns:xlink="http://www.w3.org/1999/xlink">
 <defs>
  <style type="text/css">
*{stroke-linecap:butt;stroke-linejoin:round;}
  </style>
 </defs>
 <g id="figure_1">
  <g id="patch_1">
   <path d="M 0 345.6 
L 460.8 345.6 
L 460.8 0 
L 0 0 
z
" style="fill:#ffffff;"/>
  </g>
  <g id="axes_1">
   <g id="patch_2">
    <path d="M 57.6 307.584 
L 414.72 307.584 
L 414.72 41.472 
L 57.6 41.472 
z
" style="fill:#ffffff;"/>
   </g>
   <g id="patch_3">
    <path clip-path="url(#p889f513384)" d="M 73.832727 307.584 
L 76.753957 307.584 
L 76.753957 306.859886 
L 73.832727 306.859886 
z
" style="fill:#1f77b4;opacity:0.4;"/>
   </g>
   <g id="patch_4">
    <path clip-path="url(#p889f513384)" d="M 76.753957 307.584 
L 79.675186 307.584 
L 79.675186 306.859886 
L 76.753957 306.859886 
z
" style="fill:#1f77b4;opacity:0.4;"/>
   </g>
   <g id="patch_5">
    <path clip-path="url(#p889f513384)" d="M 79.675186 307.584 
L 82.596416 307.584 
L 82.596416 306.859886 
L 79.675186 306.859886 
z
" style="fill:#1f77b4;opacity:0.4;"/>
   </g>
   <g id="patch_6">
    <path clip-path="url(#p889f513384)" d="M 82.596416 307.584 
L 85.517646 307.584 
L 85.517646 306.859886 
L 82.596416 306.859886 
z
" style="fill:#1f77b4;opacity:0.4;"/>
   </g>
   <g id="patch_7">
    <path clip-path="url(#p889f513384)" d="M 85.517646 307.584 
L 88.438875 307.584 
L 88.438875 306.859886 
L 85.517646 306.859886 
z
" style="fill:#1f77b4;opacity:0.4;"/>
   </g>
   <g id="patch_8">
    <path clip-path="url(#p889f513384)" d="M 88.438875 307.584 
L 91.360105 307.584 
L 91.360105 306.497829 
L 88.438875 306.497829 
z
" style="fill:#1f77b4;opacity:0.4;"/>
   </g>
   <g id="patch_9">
    <path clip-path="url(#p889f513384)" d="M 91.360105 307.584 
L 94.281334 307.584 
L 94.281334 307.221943 
L 91.360105 307.221943 
z
" style="fill:#1f77b4;opacity:0.4;"/>
   </g>
   <g id="patch_10">
    <path clip-path="url(#p889f513384)" d="M 94.281334 307.584 
L 97.202564 307.584 
L 97.202564 307.221943 
L 94.281334 307.221943 
z
" style="fill:#1f77b4;opacity:0.4;"/>
   </g>
   <g id="patch_11">
    <path clip-path="url(#p889f513384)" d="M 97.202564 307.584 
L 100.123793 307.584 
L 100.123793 307.584 
L 97.202564 307.584 
z
" style="fill:#1f77b4;opacity:0.4;"/>
   </g>
   <g id="patch_12">
    <path clip-path="url(#p889f513384)" d="M 100.123793 307.584 
L 103.045023 307.584 
L 103.045023 307.221943 
L 100.123793 307.221943 
z
" style="fill:#1f77b4;opacity:0.4;"/>
   </g>
   <g id="patch_13">
    <path clip-path="url(#p889f513384)" d="M 103.045023 307.584 
L 105.966252 307.584 
L 105.966252 307.584 
L 103.045023 307.584 
z
" style="fill:#1f77b4;opacity:0.4;"/>
   </g>
   <g id="patch_14">
    <path clip-path="url(#p889f513384)" d="M 105.966252 307.584 
L 108.887482 307.584 
L 108.887482 305.0496 
L 105.966252 305.0496 
z
" style="fill:#1f77b4;opacity:0.4;"/>
   </g>
   <g id="patch_15">
    <path clip-path="url(#p889f513384)" d="M 108.887482 307.584 
L 111.808712 307.584 
L 111.808712 302.153143 
L 108.887482 302.153143 
z
" style="fill:#1f77b4;opacity:0.4;"/>
   </g>
   <g id="patch_16">
    <path clip-path="url(#p889f513384)" d="M 111.808712 307.584 
L 114.729941 307.584 
L 114.729941 293.825829 
L 111.808712 293.825829 
z
" style="fill:#1f77b4;opacity:0.4;"/>
   </g>
   <g id="patch_17">
    <path clip-path="url(#p889f513384)" d="M 114.729941 307.584 
L 117.651171 307.584 
L 117.651171 286.584686 
L 114.729941 286.584686 
z
" style="fill:#1f77b4;opacity:0.4;"/>
   </g>
   <g id="patch_18">
    <path clip-path="url(#p889f513384)" d="M 117.651171 307.584 
L 120.5724 307.584 
L 120.5724 271.016229 
L 117.651171 271.016229 
z
" style="fill:#1f77b4;opacity:0.4;"/>
   </g>
   <g id="patch_19">
    <path clip-path="url(#p889f513384)" d="M 120.5724 307.584 
L 123.49363 307.584 
L 123.49363 253.999543 
L 120.5724 253.999543 
z
" style="fill:#1f77b4;opacity:0.4;"/>
   </g>
   <g id="patch_20">
    <path clip-path="url(#p889f513384)" d="M 123.49363 307.584 
L 126.414859 307.584 
L 126.414859 251.465143 
L 123.49363 251.465143 
z
" style="fill:#1f77b4;opacity:0.4;"/>
   </g>
   <g id="patch_21">
    <path clip-path="url(#p889f513384)" d="M 126.414859 307.584 
L 129.336089 307.584 
L 129.336089 223.586743 
L 126.414859 223.586743 
z
" style="fill:#1f77b4;opacity:0.4;"/>
   </g>
   <g id="patch_22">
    <path clip-path="url(#p889f513384)" d="M 129.336089 307.584 
L 132.257318 307.584 
L 132.257318 241.327543 
L 129.336089 241.327543 
z
" style="fill:#1f77b4;opacity:0.4;"/>
   </g>
   <g id="patch_23">
    <path clip-path="url(#p889f513384)" d="M 132.257318 307.584 
L 135.178548 307.584 
L 135.178548 240.965486 
L 132.257318 240.965486 
z
" style="fill:#1f77b4;opacity:0.4;"/>
   </g>
   <g id="patch_24">
    <path clip-path="url(#p889f513384)" d="M 135.178548 307.584 
L 138.099778 307.584 
L 138.099778 259.068343 
L 135.178548 259.068343 
z
" style="fill:#1f77b4;opacity:0.4;"/>
   </g>
   <g id="patch_25">
    <path clip-path="url(#p889f513384)" d="M 138.099778 307.584 
L 141.021007 307.584 
L 141.021007 280.067657 
L 138.099778 280.067657 
z
" style="fill:#1f77b4;opacity:0.4;"/>
   </g>
   <g id="patch_26">
    <path clip-path="url(#p889f513384)" d="M 141.021007 307.584 
L 143.942237 307.584 
L 143.942237 288.032914 
L 141.021007 288.032914 
z
" style="fill:#1f77b4;opacity:0.4;"/>
   </g>
   <g id="patch_27">
    <path clip-path="url(#p889f513384)" d="M 143.942237 307.584 
L 146.863466 307.584 
L 146.863466 296.722286 
L 143.942237 296.722286 
z
" style="fill:#1f77b4;opacity:0.4;"/>
   </g>
   <g id="patch_28">
    <path clip-path="url(#p889f513384)" d="M 146.863466 307.584 
L 149.784696 307.584 
L 149.784696 295.274057 
L 146.863466 295.274057 
z
" style="fill:#1f77b4;opacity:0.4;"/>
   </g>
   <g id="patch_29">
    <path clip-path="url(#p889f513384)" d="M 149.784696 307.584 
L 152.705925 307.584 
L 152.705925 298.532571 
L 149.784696 298.532571 
z
" style="fill:#1f77b4;opacity:0.4;"/>
   </g>
   <g id="patch_30">
    <path clip-path="url(#p889f513384)" d="M 152.705925 307.584 
L 155.627155 307.584 
L 155.627155 296.360229 
L 152.705925 296.360229 
z
" style="fill:#1f77b4;opacity:0.4;"/>
   </g>
   <g id="patch_31">
    <path clip-path="url(#p889f513384)" d="M 155.627155 307.584 
L 158.548385 307.584 
L 158.548385 287.3088 
L 155.627155 287.3088 
z
" style="fill:#1f77b4;opacity:0.4;"/>
   </g>
   <g id="patch_32">
    <path clip-path="url(#p889f513384)" d="M 158.548385 307.584 
L 161.469614 307.584 
L 161.469614 282.964114 
L 158.548385 282.964114 
z
" style="fill:#1f77b4;opacity:0.4;"/>
   </g>
   <g id="patch_33">
    <path clip-path="url(#p889f513384)" d="M 161.469614 307.584 
L 164.390844 307.584 
L 164.390844 273.188571 
L 161.469614 273.188571 
z
" style="fill:#1f77b4;opacity:0.4;"/>
   </g>
   <g id="patch_34">
    <path clip-path="url(#p889f513384)" d="M 164.390844 307.584 
L 167.312073 307.584 
L 167.312073 270.292114 
L 164.390844 270.292114 
z
" style="fill:#1f77b4;opacity:0.4;"/>
   </g>
   <g id="patch_35">
    <path clip-path="url(#p889f513384)" d="M 167.312073 307.584 
L 170.233303 307.584 
L 170.233303 274.998857 
L 167.312073 274.998857 
z
" style="fill:#1f77b4;opacity:0.4;"/>
   </g>
   <g id="patch_36">
    <path clip-path="url(#p889f513384)" d="M 170.233303 307.584 
L 173.154532 307.584 
L 173.154532 271.016229 
L 170.233303 271.016229 
z
" style="fill:#1f77b4;opacity:0.4;"/>
   </g>
   <g id="patch_37">
    <path clip-path="url(#p889f513384)" d="M 173.154532 307.584 
L 176.075762 307.584 
L 176.075762 280.067657 
L 173.154532 280.067657 
z
" style="fill:#1f77b4;opacity:0.4;"/>
   </g>
   <g id="patch_38">
    <path clip-path="url(#p889f513384)" d="M 176.075762 307.584 
L 178.996991 307.584 
L 178.996991 281.877943 
L 176.075762 281.877943 
z
" style="fill:#1f77b4;opacity:0.4;"/>
   </g>
   <g id="patch_39">
    <path clip-path="url(#p889f513384)" d="M 178.996991 307.584 
L 181.918221 307.584 
L 181.918221 287.3088 
L 178.996991 287.3088 
z
" style="fill:#1f77b4;opacity:0.4;"/>
   </g>
   <g id="patch_40">
    <path clip-path="url(#p889f513384)" d="M 181.918221 307.584 
L 184.839451 307.584 
L 184.839451 296.360229 
L 181.918221 296.360229 
z
" style="fill:#1f77b4;opacity:0.4;"/>
   </g>
   <g id="patch_41">
    <path clip-path="url(#p889f513384)" d="M 184.839451 307.584 
L 187.76068 307.584 
L 187.76068 302.5152 
L 184.839451 302.5152 
z
" style="fill:#1f77b4;opacity:0.4;"/>
   </g>
   <g id="patch_42">
    <path clip-path="url(#p889f513384)" d="M 187.76068 307.584 
L 190.68191 307.584 
L 190.68191 302.877257 
L 187.76068 302.877257 
z
" style="fill:#1f77b4;opacity:0.4;"/>
   </g>
   <g id="patch_43">
    <path clip-path="url(#p889f513384)" d="M 190.68191 307.584 
L 193.603139 307.584 
L 193.603139 302.877257 
L 190.68191 302.877257 
z
" style="fill:#1f77b4;opacity:0.4;"/>
   </g>
   <g id="patch_44">
    <path clip-path="url(#p889f513384)" d="M 193.603139 307.584 
L 196.524369 307.584 
L 196.524369 304.687543 
L 193.603139 304.687543 
z
" style="fill:#1f77b4;opacity:0.4;"/>
   </g>
   <g id="patch_45">
    <path clip-path="url(#p889f513384)" d="M 196.524369 307.584 
L 199.445598 307.584 
L 199.445598 304.325486 
L 196.524369 304.325486 
z
" style="fill:#1f77b4;opacity:0.4;"/>
   </g>
   <g id="patch_46">
    <path clip-path="url(#p889f513384)" d="M 199.445598 307.584 
L 202.366828 307.584 
L 202.366828 304.325486 
L 199.445598 304.325486 
z
" style="fill:#1f77b4;opacity:0.4;"/>
   </g>
   <g id="patch_47">
    <path clip-path="url(#p889f513384)" d="M 202.366828 307.584 
L 205.288057 307.584 
L 205.288057 305.411657 
L 202.366828 305.411657 
z
" style="fill:#1f77b4;opacity:0.4;"/>
   </g>
   <g id="patch_48">
    <path clip-path="url(#p889f513384)" d="M 205.288057 307.584 
L 208.209287 307.584 
L 208.209287 306.135771 
L 205.288057 306.135771 
z
" style="fill:#1f77b4;opacity:0.4;"/>
   </g>
   <g id="patch_49">
    <path clip-path="url(#p889f513384)" d="M 208.209287 307.584 
L 211.130517 307.584 
L 211.130517 306.497829 
L 208.209287 306.497829 
z
" style="fill:#1f77b4;opacity:0.4;"/>
   </g>
   <g id="patch_50">
    <path clip-path="url(#p889f513384)" d="M 211.130517 307.584 
L 214.051746 307.584 
L 214.051746 305.0496 
L 211.130517 305.0496 
z
" style="fill:#1f77b4;opacity:0.4;"/>
   </g>
   <g id="patch_51">
    <path clip-path="url(#p889f513384)" d="M 214.051746 307.584 
L 216.972976 307.584 
L 216.972976 305.773714 
L 214.051746 305.773714 
z
" style="fill:#1f77b4;opacity:0.4;"/>
   </g>
   <g id="patch_52">
    <path clip-path="url(#p889f513384)" d="M 216.972976 307.584 
L 219.894205 307.584 
L 219.894205 306.497829 
L 216.972976 306.497829 
z
" style="fill:#1f77b4;opacity:0.4;"/>
   </g>
   <g id="patch_53">
    <path clip-path="url(#p889f513384)" d="M 106.848444 307.584 
L 112.68122 307.584 
L 112.68122 302.153143 
L 106.848444 302.153143 
z
" style="fill:#ff7f0e;opacity:0.3;"/>
   </g>
   <g id="patch_54">
    <path clip-path="url(#p889f513384)" d="M 112.68122 307.584 
L 118.513997 307.584 
L 118.513997 294.912 
L 112.68122 294.912 
z
" style="fill:#ff7f0e;opacity:0.3;"/>
   </g>
   <g id="patch_55">
    <path clip-path="url(#p889f513384)" d="M 118.513997 307.584 
L 124.346773 307.584 
L 124.346773 278.619429 
L 118.513997 278.619429 
z
" style="fill:#ff7f0e;opacity:0.3;"/>
   </g>
   <g id="patch_56">
    <path clip-path="url(#p889f513384)" d="M 124.346773 307.584 
L 130.17955 307.584 
L 130.17955 248.930743 
L 124.346773 248.930743 
z
" style="fill:#ff7f0e;opacity:0.3;"/>
   </g>
   <g id="patch_57">
    <path clip-path="url(#p889f513384)" d="M 130.17955 307.584 
L 136.012327 307.584 
L 136.012327 223.224686 
L 130.17955 223.224686 
z
" style="fill:#ff7f0e;opacity:0.3;"/>
   </g>
   <g id="patch_58">
    <path clip-path="url(#p889f513384)" d="M 136.012327 307.584 
L 141.845103 307.584 
L 141.845103 191.363657 
L 136.012327 191.363657 
z
" style="fill:#ff7f0e;opacity:0.3;"/>
   </g>
   <g id="patch_59">
    <path clip-path="url(#p889f513384)" d="M 141.845103 307.584 
L 147.67788 307.584 
L 147.67788 228.293486 
L 141.845103 228.293486 
z
" style="fill:#ff7f0e;opacity:0.3;"/>
   </g>
   <g id="patch_60">
    <path clip-path="url(#p889f513384)" d="M 147.67788 307.584 
L 153.510656 307.584 
L 153.510656 248.930743 
L 147.67788 248.930743 
z
" style="fill:#ff7f0e;opacity:0.3;"/>
   </g>
   <g id="patch_61">
    <path clip-path="url(#p889f513384)" d="M 153.510656 307.584 
L 159.343433 307.584 
L 159.343433 258.344229 
L 153.510656 258.344229 
z
" style="fill:#ff7f0e;opacity:0.3;"/>
   </g>
   <g id="patch_62">
    <path clip-path="url(#p889f513384)" d="M 159.343433 307.584 
L 165.17621 307.584 
L 165.17621 268.481829 
L 159.343433 268.481829 
z
" style="fill:#ff7f0e;opacity:0.3;"/>
   </g>
   <g id="patch_63">
    <path clip-path="url(#p889f513384)" d="M 165.17621 307.584 
L 171.008986 307.584 
L 171.008986 268.481829 
L 165.17621 268.481829 
z
" style="fill:#ff7f0e;opacity:0.3;"/>
   </g>
   <g id="patch_64">
    <path clip-path="url(#p889f513384)" d="M 171.008986 307.584 
L 176.841763 307.584 
L 176.841763 259.068343 
L 171.008986 259.068343 
z
" style="fill:#ff7f0e;opacity:0.3;"/>
   </g>
   <g id="patch_65">
    <path clip-path="url(#p889f513384)" d="M 176.841763 307.584 
L 182.674539 307.584 
L 182.674539 271.378286 
L 176.841763 271.378286 
z
" style="fill:#ff7f0e;opacity:0.3;"/>
   </g>
   <g id="patch_66">
    <path clip-path="url(#p889f513384)" d="M 182.674539 307.584 
L 188.507316 307.584 
L 188.507316 273.550629 
L 182.674539 273.550629 
z
" style="fill:#ff7f0e;opacity:0.3;"/>
   </g>
   <g id="patch_67">
    <path clip-path="url(#p889f513384)" d="M 188.507316 307.584 
L 194.340092 307.584 
L 194.340092 263.050971 
L 188.507316 263.050971 
z
" style="fill:#ff7f0e;opacity:0.3;"/>
   </g>
   <g id="patch_68">
    <path clip-path="url(#p889f513384)" d="M 194.340092 307.584 
L 200.172869 307.584 
L 200.172869 277.895314 
L 194.340092 277.895314 
z
" style="fill:#ff7f0e;opacity:0.3;"/>
   </g>
   <g id="patch_69">
    <path clip-path="url(#p889f513384)" d="M 200.172869 307.584 
L 206.005646 307.584 
L 206.005646 278.619429 
L 200.172869 278.619429 
z
" style="fill:#ff7f0e;opacity:0.3;"/>
   </g>
   <g id="patch_70">
    <path clip-path="url(#p889f513384)" d="M 206.005646 307.584 
L 211.838422 307.584 
L 211.838422 295.274057 
L 206.005646 295.274057 
z
" style="fill:#ff7f0e;opacity:0.3;"/>
   </g>
   <g id="patch_71">
    <path clip-path="url(#p889f513384)" d="M 211.838422 307.584 
L 217.671199 307.584 
L 217.671199 299.9808 
L 211.838422 299.9808 
z
" style="fill:#ff7f0e;opacity:0.3;"/>
   </g>
   <g id="patch_72">
    <path clip-path="url(#p889f513384)" d="M 217.671199 307.584 
L 223.503975 307.584 
L 223.503975 297.808457 
L 217.671199 297.808457 
z
" style="fill:#ff7f0e;opacity:0.3;"/>
   </g>
   <g id="patch_73">
    <path clip-path="url(#p889f513384)" d="M 223.503975 307.584 
L 229.336752 307.584 
L 229.336752 301.429029 
L 223.503975 301.429029 
z
" style="fill:#ff7f0e;opacity:0.3;"/>
   </g>
   <g id="patch_74">
    <path clip-path="url(#p889f513384)" d="M 229.336752 307.584 
L 235.169529 307.584 
L 235.169529 302.5152 
L 229.336752 302.5152 
z
" style="fill:#ff7f0e;opacity:0.3;"/>
   </g>
   <g id="patch_75">
    <path clip-path="url(#p889f513384)" d="M 235.169529 307.584 
L 241.002305 307.584 
L 241.002305 305.0496 
L 235.169529 305.0496 
z
" style="fill:#ff7f0e;opacity:0.3;"/>
   </g>
   <g id="patch_76">
    <path clip-path="url(#p889f513384)" d="M 241.002305 307.584 
L 246.835082 307.584 
L 246.835082 305.773714 
L 241.002305 305.773714 
z
" style="fill:#ff7f0e;opacity:0.3;"/>
   </g>
   <g id="patch_77">
    <path clip-path="url(#p889f513384)" d="M 246.835082 307.584 
L 252.667858 307.584 
L 252.667858 305.773714 
L 246.835082 305.773714 
z
" style="fill:#ff7f0e;opacity:0.3;"/>
   </g>
   <g id="patch_78">
    <path clip-path="url(#p889f513384)" d="M 252.667858 307.584 
L 258.500635 307.584 
L 258.500635 305.773714 
L 252.667858 305.773714 
z
" style="fill:#ff7f0e;opacity:0.3;"/>
   </g>
   <g id="patch_79">
    <path clip-path="url(#p889f513384)" d="M 258.500635 307.584 
L 264.333411 307.584 
L 264.333411 305.411657 
L 258.500635 305.411657 
z
" style="fill:#ff7f0e;opacity:0.3;"/>
   </g>
   <g id="patch_80">
    <path clip-path="url(#p889f513384)" d="M 264.333411 307.584 
L 270.166188 307.584 
L 270.166188 305.773714 
L 264.333411 305.773714 
z
" style="fill:#ff7f0e;opacity:0.3;"/>
   </g>
   <g id="patch_81">
    <path clip-path="url(#p889f513384)" d="M 270.166188 307.584 
L 275.998965 307.584 
L 275.998965 306.497829 
L 270.166188 306.497829 
z
" style="fill:#ff7f0e;opacity:0.3;"/>
   </g>
   <g id="patch_82">
    <path clip-path="url(#p889f513384)" d="M 275.998965 307.584 
L 281.831741 307.584 
L 281.831741 306.859886 
L 275.998965 306.859886 
z
" style="fill:#ff7f0e;opacity:0.3;"/>
   </g>
   <g id="patch_83">
    <path clip-path="url(#p889f513384)" d="M 281.831741 307.584 
L 287.664518 307.584 
L 287.664518 306.859886 
L 281.831741 306.859886 
z
" style="fill:#ff7f0e;opacity:0.3;"/>
   </g>
   <g id="patch_84">
    <path clip-path="url(#p889f513384)" d="M 287.664518 307.584 
L 293.497294 307.584 
L 293.497294 307.221943 
L 287.664518 307.221943 
z
" style="fill:#ff7f0e;opacity:0.3;"/>
   </g>
   <g id="patch_85">
    <path clip-path="url(#p889f513384)" d="M 293.497294 307.584 
L 299.330071 307.584 
L 299.330071 306.135771 
L 293.497294 306.135771 
z
" style="fill:#ff7f0e;opacity:0.3;"/>
   </g>
   <g id="patch_86">
    <path clip-path="url(#p889f513384)" d="M 299.330071 307.584 
L 305.162847 307.584 
L 305.162847 307.584 
L 299.330071 307.584 
z
" style="fill:#ff7f0e;opacity:0.3;"/>
   </g>
   <g id="patch_87">
    <path clip-path="url(#p889f513384)" d="M 305.162847 307.584 
L 310.995624 307.584 
L 310.995624 307.221943 
L 305.162847 307.221943 
z
" style="fill:#ff7f0e;opacity:0.3;"/>
   </g>
   <g id="patch_88">
    <path clip-path="url(#p889f513384)" d="M 310.995624 307.584 
L 316.828401 307.584 
L 316.828401 306.859886 
L 310.995624 306.859886 
z
" style="fill:#ff7f0e;opacity:0.3;"/>
   </g>
   <g id="patch_89">
    <path clip-path="url(#p889f513384)" d="M 316.828401 307.584 
L 322.661177 307.584 
L 322.661177 307.584 
L 316.828401 307.584 
z
" style="fill:#ff7f0e;opacity:0.3;"/>
   </g>
   <g id="patch_90">
    <path clip-path="url(#p889f513384)" d="M 322.661177 307.584 
L 328.493954 307.584 
L 328.493954 306.497829 
L 322.661177 306.497829 
z
" style="fill:#ff7f0e;opacity:0.3;"/>
   </g>
   <g id="patch_91">
    <path clip-path="url(#p889f513384)" d="M 328.493954 307.584 
L 334.32673 307.584 
L 334.32673 306.859886 
L 328.493954 306.859886 
z
" style="fill:#ff7f0e;opacity:0.3;"/>
   </g>
   <g id="patch_92">
    <path clip-path="url(#p889f513384)" d="M 334.32673 307.584 
L 340.159507 307.584 
L 340.159507 307.584 
L 334.32673 307.584 
z
" style="fill:#ff7f0e;opacity:0.3;"/>
   </g>
   <g id="patch_93">
    <path clip-path="url(#p889f513384)" d="M 340.159507 307.584 
L 345.992284 307.584 
L 345.992284 307.584 
L 340.159507 307.584 
z
" style="fill:#ff7f0e;opacity:0.3;"/>
   </g>
   <g id="patch_94">
    <path clip-path="url(#p889f513384)" d="M 345.992284 307.584 
L 351.82506 307.584 
L 351.82506 307.221943 
L 345.992284 307.221943 
z
" style="fill:#ff7f0e;opacity:0.3;"/>
   </g>
   <g id="patch_95">
    <path clip-path="url(#p889f513384)" d="M 351.82506 307.584 
L 357.657837 307.584 
L 357.657837 307.584 
L 351.82506 307.584 
z
" style="fill:#ff7f0e;opacity:0.3;"/>
   </g>
   <g id="patch_96">
    <path clip-path="url(#p889f513384)" d="M 357.657837 307.584 
L 363.490613 307.584 
L 363.490613 307.584 
L 357.657837 307.584 
z
" style="fill:#ff7f0e;opacity:0.3;"/>
   </g>
   <g id="patch_97">
    <path clip-path="url(#p889f513384)" d="M 363.490613 307.584 
L 369.32339 307.584 
L 369.32339 307.584 
L 363.490613 307.584 
z
" style="fill:#ff7f0e;opacity:0.3;"/>
   </g>
   <g id="patch_98">
    <path clip-path="url(#p889f513384)" d="M 369.32339 307.584 
L 375.156166 307.584 
L 375.156166 307.584 
L 369.32339 307.584 
z
" style="fill:#ff7f0e;opacity:0.3;"/>
   </g>
   <g id="patch_99">
    <path clip-path="url(#p889f513384)" d="M 375.156166 307.584 
L 380.988943 307.584 
L 380.988943 307.584 
L 375.156166 307.584 
z
" style="fill:#ff7f0e;opacity:0.3;"/>
   </g>
   <g id="patch_100">
    <path clip-path="url(#p889f513384)" d="M 380.988943 307.584 
L 386.82172 307.584 
L 386.82172 307.584 
L 380.988943 307.584 
z
" style="fill:#ff7f0e;opacity:0.3;"/>
   </g>
   <g id="patch_101">
    <path clip-path="url(#p889f513384)" d="M 386.82172 307.584 
L 392.654496 307.584 
L 392.654496 307.221943 
L 386.82172 307.221943 
z
" style="fill:#ff7f0e;opacity:0.3;"/>
   </g>
   <g id="patch_102">
    <path clip-path="url(#p889f513384)" d="M 392.654496 307.584 
L 398.487273 307.584 
L 398.487273 306.859886 
L 392.654496 306.859886 
z
" style="fill:#ff7f0e;opacity:0.3;"/>
   </g>
   <g id="patch_103">
    <path clip-path="url(#p889f513384)" d="M 73.832727 307.584 
L 78.201703 307.584 
L 78.201703 54.144 
L 73.832727 54.144 
z
" style="fill:#2ca02c;opacity:0.6;"/>
   </g>
   <g id="patch_104">
    <path clip-path="url(#p889f513384)" d="M 78.201703 307.584 
L 82.570679 307.584 
L 82.570679 212.000914 
L 78.201703 212.000914 
z
" style="fill:#2ca02c;opacity:0.6;"/>
   </g>
   <g id="patch_105">
    <path clip-path="url(#p889f513384)" d="M 82.570679 307.584 
L 86.939654 307.584 
L 86.939654 204.397714 
L 82.570679 204.397714 
z
" style="fill:#2ca02c;opacity:0.6;"/>
   </g>
   <g id="patch_106">
    <path clip-path="url(#p889f513384)" d="M 86.939654 307.584 
L 91.30863 307.584 
L 91.30863 216.3456 
L 86.939654 216.3456 
z
" style="fill:#2ca02c;opacity:0.6;"/>
   </g>
   <g id="patch_107">
    <path clip-path="url(#p889f513384)" d="M 91.30863 307.584 
L 95.677605 307.584 
L 95.677605 236.258743 
L 91.30863 236.258743 
z
" style="fill:#2ca02c;opacity:0.6;"/>
   </g>
   <g id="patch_108">
    <path clip-path="url(#p889f513384)" d="M 95.677605 307.584 
L 100.046581 307.584 
L 100.046581 236.982857 
L 95.677605 236.982857 
z
" style="fill:#2ca02c;opacity:0.6;"/>
   </g>
   <g id="patch_109">
    <path clip-path="url(#p889f513384)" d="M 100.046581 307.584 
L 104.415557 307.584 
L 104.415557 259.4304 
L 100.046581 259.4304 
z
" style="fill:#2ca02c;opacity:0.6;"/>
   </g>
   <g id="patch_110">
    <path clip-path="url(#p889f513384)" d="M 104.415557 307.584 
L 108.784532 307.584 
L 108.784532 272.464457 
L 104.415557 272.464457 
z
" style="fill:#2ca02c;opacity:0.6;"/>
   </g>
   <g id="patch_111">
    <path clip-path="url(#p889f513384)" d="M 108.784532 307.584 
L 113.153508 307.584 
L 113.153508 281.877943 
L 108.784532 281.877943 
z
" style="fill:#2ca02c;opacity:0.6;"/>
   </g>
   <g id="patch_112">
    <path clip-path="url(#p889f513384)" d="M 113.153508 307.584 
L 117.522484 307.584 
L 117.522484 289.8432 
L 113.153508 289.8432 
z
" style="fill:#2ca02c;opacity:0.6;"/>
   </g>
   <g id="patch_113">
    <path clip-path="url(#p889f513384)" d="M 117.522484 307.584 
L 121.891459 307.584 
L 121.891459 294.549943 
L 117.522484 294.549943 
z
" style="fill:#2ca02c;opacity:0.6;"/>
   </g>
   <g id="patch_114">
    <path clip-path="url(#p889f513384)" d="M 121.891459 307.584 
L 126.260435 307.584 
L 126.260435 299.618743 
L 121.891459 299.618743 
z
" style="fill:#2ca02c;opacity:0.6;"/>
   </g>
   <g id="patch_115">
    <path clip-path="url(#p889f513384)" d="M 126.260435 307.584 
L 130.62941 307.584 
L 130.62941 303.963429 
L 126.260435 303.963429 
z
" style="fill:#2ca02c;opacity:0.6;"/>
   </g>
   <g id="patch_116">
    <path clip-path="url(#p889f513384)" d="M 130.62941 307.584 
L 134.998386 307.584 
L 134.998386 304.325486 
L 130.62941 304.325486 
z
" style="fill:#2ca02c;opacity:0.6;"/>
   </g>
   <g id="patch_117">
    <path clip-path="url(#p889f513384)" d="M 134.998386 307.584 
L 139.367362 307.584 
L 139.367362 305.0496 
L 134.998386 305.0496 
z
" style="fill:#2ca02c;opacity:0.6;"/>
   </g>
   <g id="patch_118">
    <path clip-path="url(#p889f513384)" d="M 139.367362 307.584 
L 143.736337 307.584 
L 143.736337 306.135771 
L 139.367362 306.135771 
z
" style="fill:#2ca02c;opacity:0.6;"/>
   </g>
   <g id="patch_119">
    <path clip-path="url(#p889f513384)" d="M 143.736337 307.584 
L 148.105313 307.584 
L 148.105313 306.859886 
L 143.736337 306.859886 
z
" style="fill:#2ca02c;opacity:0.6;"/>
   </g>
   <g id="patch_120">
    <path clip-path="url(#p889f513384)" d="M 148.105313 307.584 
L 152.474289 307.584 
L 152.474289 306.859886 
L 148.105313 306.859886 
z
" style="fill:#2ca02c;opacity:0.6;"/>
   </g>
   <g id="patch_121">
    <path clip-path="url(#p889f513384)" d="M 152.474289 307.584 
L 156.843264 307.584 
L 156.843264 305.411657 
L 152.474289 305.411657 
z
" style="fill:#2ca02c;opacity:0.6;"/>
   </g>
   <g id="patch_122">
    <path clip-path="url(#p889f513384)" d="M 156.843264 307.584 
L 161.21224 307.584 
L 161.21224 307.221943 
L 156.843264 307.221943 
z
" style="fill:#2ca02c;opacity:0.6;"/>
   </g>
   <g id="patch_123">
    <path clip-path="url(#p889f513384)" d="M 161.21224 307.584 
L 165.581216 307.584 
L 165.581216 306.859886 
L 161.21224 306.859886 
z
" style="fill:#2ca02c;opacity:0.6;"/>
   </g>
   <g id="patch_124">
    <path clip-path="url(#p889f513384)" d="M 165.581216 307.584 
L 169.950191 307.584 
L 169.950191 307.221943 
L 165.581216 307.221943 
z
" style="fill:#2ca02c;opacity:0.6;"/>
   </g>
   <g id="patch_125">
    <path clip-path="url(#p889f513384)" d="M 169.950191 307.584 
L 174.319167 307.584 
L 174.319167 307.221943 
L 169.950191 307.221943 
z
" style="fill:#2ca02c;opacity:0.6;"/>
   </g>
   <g id="patch_126">
    <path clip-path="url(#p889f513384)" d="M 174.319167 307.584 
L 178.688142 307.584 
L 178.688142 306.859886 
L 174.319167 306.859886 
z
" style="fill:#2ca02c;opacity:0.6;"/>
   </g>
   <g id="patch_127">
    <path clip-path="url(#p889f513384)" d="M 178.688142 307.584 
L 183.057118 307.584 
L 183.057118 307.221943 
L 178.688142 307.221943 
z
" style="fill:#2ca02c;opacity:0.6;"/>
   </g>
   <g id="patch_128">
    <path clip-path="url(#p889f513384)" d="M 183.057118 307.584 
L 187.426094 307.584 
L 187.426094 307.584 
L 183.057118 307.584 
z
" style="fill:#2ca02c;opacity:0.6;"/>
   </g>
   <g id="patch_129">
    <path clip-path="url(#p889f513384)" d="M 187.426094 307.584 
L 191.795069 307.584 
L 191.795069 307.221943 
L 187.426094 307.221943 
z
" style="fill:#2ca02c;opacity:0.6;"/>
   </g>
   <g id="patch_130">
    <path clip-path="url(#p889f513384)" d="M 191.795069 307.584 
L 196.164045 307.584 
L 196.164045 307.221943 
L 191.795069 307.221943 
z
" style="fill:#2ca02c;opacity:0.6;"/>
   </g>
   <g id="patch_131">
    <path clip-path="url(#p889f513384)" d="M 196.164045 307.584 
L 200.533021 307.584 
L 200.533021 307.584 
L 196.164045 307.584 
z
" style="fill:#2ca02c;opacity:0.6;"/>
   </g>
   <g id="patch_132">
    <path clip-path="url(#p889f513384)" d="M 200.533021 307.584 
L 204.901996 307.584 
L 204.901996 307.584 
L 200.533021 307.584 
z
" style="fill:#2ca02c;opacity:0.6;"/>
   </g>
   <g id="patch_133">
    <path clip-path="url(#p889f513384)" d="M 204.901996 307.584 
L 209.270972 307.584 
L 209.270972 307.584 
L 204.901996 307.584 
z
" style="fill:#2ca02c;opacity:0.6;"/>
   </g>
   <g id="patch_134">
    <path clip-path="url(#p889f513384)" d="M 209.270972 307.584 
L 213.639947 307.584 
L 213.639947 307.221943 
L 209.270972 307.221943 
z
" style="fill:#2ca02c;opacity:0.6;"/>
   </g>
   <g id="patch_135">
    <path clip-path="url(#p889f513384)" d="M 213.639947 307.584 
L 218.008923 307.584 
L 218.008923 306.859886 
L 213.639947 306.859886 
z
" style="fill:#2ca02c;opacity:0.6;"/>
   </g>
   <g id="patch_136">
    <path clip-path="url(#p889f513384)" d="M 218.008923 307.584 
L 222.377899 307.584 
L 222.377899 307.221943 
L 218.008923 307.221943 
z
" style="fill:#2ca02c;opacity:0.6;"/>
   </g>
   <g id="patch_137">
    <path clip-path="url(#p889f513384)" d="M 222.377899 307.584 
L 226.746874 307.584 
L 226.746874 307.221943 
L 222.377899 307.221943 
z
" style="fill:#2ca02c;opacity:0.6;"/>
   </g>
   <g id="patch_138">
    <path clip-path="url(#p889f513384)" d="M 226.746874 307.584 
L 231.11585 307.584 
L 231.11585 306.859886 
L 226.746874 306.859886 
z
" style="fill:#2ca02c;opacity:0.6;"/>
   </g>
   <g id="patch_139">
    <path clip-path="url(#p889f513384)" d="M 231.11585 307.584 
L 235.484826 307.584 
L 235.484826 307.584 
L 231.11585 307.584 
z
" style="fill:#2ca02c;opacity:0.6;"/>
   </g>
   <g id="patch_140">
    <path clip-path="url(#p889f513384)" d="M 235.484826 307.584 
L 239.853801 307.584 
L 239.853801 307.584 
L 235.484826 307.584 
z
" style="fill:#2ca02c;opacity:0.6;"/>
   </g>
   <g id="patch_141">
    <path clip-path="url(#p889f513384)" d="M 239.853801 307.584 
L 244.222777 307.584 
L 244.222777 307.221943 
L 239.853801 307.221943 
z
" style="fill:#2ca02c;opacity:0.6;"/>
   </g>
   <g id="patch_142">
    <path clip-path="url(#p889f513384)" d="M 244.222777 307.584 
L 248.591753 307.584 
L 248.591753 307.584 
L 244.222777 307.584 
z
" style="fill:#2ca02c;opacity:0.6;"/>
   </g>
   <g id="patch_143">
    <path clip-path="url(#p889f513384)" d="M 248.591753 307.584 
L 252.960728 307.584 
L 252.960728 307.584 
L 248.591753 307.584 
z
" style="fill:#2ca02c;opacity:0.6;"/>
   </g>
   <g id="patch_144">
    <path clip-path="url(#p889f513384)" d="M 252.960728 307.584 
L 257.329704 307.584 
L 257.329704 307.584 
L 252.960728 307.584 
z
" style="fill:#2ca02c;opacity:0.6;"/>
   </g>
   <g id="patch_145">
    <path clip-path="url(#p889f513384)" d="M 257.329704 307.584 
L 261.698679 307.584 
L 261.698679 307.584 
L 257.329704 307.584 
z
" style="fill:#2ca02c;opacity:0.6;"/>
   </g>
   <g id="patch_146">
    <path clip-path="url(#p889f513384)" d="M 261.698679 307.584 
L 266.067655 307.584 
L 266.067655 307.584 
L 261.698679 307.584 
z
" style="fill:#2ca02c;opacity:0.6;"/>
   </g>
   <g id="patch_147">
    <path clip-path="url(#p889f513384)" d="M 266.067655 307.584 
L 270.436631 307.584 
L 270.436631 307.584 
L 266.067655 307.584 
z
" style="fill:#2ca02c;opacity:0.6;"/>
   </g>
   <g id="patch_148">
    <path clip-path="url(#p889f513384)" d="M 270.436631 307.584 
L 274.805606 307.584 
L 274.805606 307.584 
L 270.436631 307.584 
z
" style="fill:#2ca02c;opacity:0.6;"/>
   </g>
   <g id="patch_149">
    <path clip-path="url(#p889f513384)" d="M 274.805606 307.584 
L 279.174582 307.584 
L 279.174582 307.584 
L 274.805606 307.584 
z
" style="fill:#2ca02c;opacity:0.6;"/>
   </g>
   <g id="patch_150">
    <path clip-path="url(#p889f513384)" d="M 279.174582 307.584 
L 283.543558 307.584 
L 283.543558 306.859886 
L 279.174582 306.859886 
z
" style="fill:#2ca02c;opacity:0.6;"/>
   </g>
   <g id="patch_151">
    <path clip-path="url(#p889f513384)" d="M 283.543558 307.584 
L 287.912533 307.584 
L 287.912533 307.584 
L 283.543558 307.584 
z
" style="fill:#2ca02c;opacity:0.6;"/>
   </g>
   <g id="patch_152">
    <path clip-path="url(#p889f513384)" d="M 287.912533 307.584 
L 292.281509 307.584 
L 292.281509 307.221943 
L 287.912533 307.221943 
z
" style="fill:#2ca02c;opacity:0.6;"/>
   </g>
   <g id="matplotlib.axis_1">
    <g id="xtick_1">
     <g id="line2d_1">
      <defs>
       <path d="M 0 0 
L 0 3.5 
" id="m2d396e3b02" style="stroke:#000000;stroke-width:0.8;"/>
      </defs>
      <g>
       <use style="stroke:#000000;stroke-width:0.8;" x="73.832727" xlink:href="#m2d396e3b02" y="307.584"/>
      </g>
     </g>
     <g id="text_1">
      <!-- 0 -->
      <defs>
       <path d="M 31.78125 66.40625 
Q 24.171875 66.40625 20.328125 58.90625 
Q 16.5 51.421875 16.5 36.375 
Q 16.5 21.390625 20.328125 13.890625 
Q 24.171875 6.390625 31.78125 6.390625 
Q 39.453125 6.390625 43.28125 13.890625 
Q 47.125 21.390625 47.125 36.375 
Q 47.125 51.421875 43.28125 58.90625 
Q 39.453125 66.40625 31.78125 66.40625 
z
M 31.78125 74.21875 
Q 44.046875 74.21875 50.515625 64.515625 
Q 56.984375 54.828125 56.984375 36.375 
Q 56.984375 17.96875 50.515625 8.265625 
Q 44.046875 -1.421875 31.78125 -1.421875 
Q 19.53125 -1.421875 13.0625 8.265625 
Q 6.59375 17.96875 6.59375 36.375 
Q 6.59375 54.828125 13.0625 64.515625 
Q 19.53125 74.21875 31.78125 74.21875 
z
" id="DejaVuSans-48"/>
      </defs>
      <g transform="translate(70.651477 322.182437)scale(0.1 -0.1)">
       <use xlink:href="#DejaVuSans-48"/>
      </g>
     </g>
    </g>
    <g id="xtick_2">
     <g id="line2d_2">
      <g>
       <use style="stroke:#000000;stroke-width:0.8;" x="119.687889" xlink:href="#m2d396e3b02" y="307.584"/>
      </g>
     </g>
     <g id="text_2">
      <!-- 25 -->
      <defs>
       <path d="M 19.1875 8.296875 
L 53.609375 8.296875 
L 53.609375 0 
L 7.328125 0 
L 7.328125 8.296875 
Q 12.9375 14.109375 22.625 23.890625 
Q 32.328125 33.6875 34.8125 36.53125 
Q 39.546875 41.84375 41.421875 45.53125 
Q 43.3125 49.21875 43.3125 52.78125 
Q 43.3125 58.59375 39.234375 62.25 
Q 35.15625 65.921875 28.609375 65.921875 
Q 23.96875 65.921875 18.8125 64.3125 
Q 13.671875 62.703125 7.8125 59.421875 
L 7.8125 69.390625 
Q 13.765625 71.78125 18.9375 73 
Q 24.125 74.21875 28.421875 74.21875 
Q 39.75 74.21875 46.484375 68.546875 
Q 53.21875 62.890625 53.21875 53.421875 
Q 53.21875 48.921875 51.53125 44.890625 
Q 49.859375 40.875 45.40625 35.40625 
Q 44.1875 33.984375 37.640625 27.21875 
Q 31.109375 20.453125 19.1875 8.296875 
z
" id="DejaVuSans-50"/>
       <path d="M 10.796875 72.90625 
L 49.515625 72.90625 
L 49.515625 64.59375 
L 19.828125 64.59375 
L 19.828125 46.734375 
Q 21.96875 47.46875 24.109375 47.828125 
Q 26.265625 48.1875 28.421875 48.1875 
Q 40.625 48.1875 47.75 41.5 
Q 54.890625 34.8125 54.890625 23.390625 
Q 54.890625 11.625 47.5625 5.09375 
Q 40.234375 -1.421875 26.90625 -1.421875 
Q 22.3125 -1.421875 17.546875 -0.640625 
Q 12.796875 0.140625 7.71875 1.703125 
L 7.71875 11.625 
Q 12.109375 9.234375 16.796875 8.0625 
Q 21.484375 6.890625 26.703125 6.890625 
Q 35.15625 6.890625 40.078125 11.328125 
Q 45.015625 15.765625 45.015625 23.390625 
Q 45.015625 31 40.078125 35.4375 
Q 35.15625 39.890625 26.703125 39.890625 
Q 22.75 39.890625 18.8125 39.015625 
Q 14.890625 38.140625 10.796875 36.28125 
z
" id="DejaVuSans-53"/>
      </defs>
      <g transform="translate(113.325389 322.182437)scale(0.1 -0.1)">
       <use xlink:href="#DejaVuSans-50"/>
       <use x="63.623047" xlink:href="#DejaVuSans-53"/>
      </g>
     </g>
    </g>
    <g id="xtick_3">
     <g id="line2d_3">
      <g>
       <use style="stroke:#000000;stroke-width:0.8;" x="165.543051" xlink:href="#m2d396e3b02" y="307.584"/>
      </g>
     </g>
     <g id="text_3">
      <!-- 50 -->
      <g transform="translate(159.180551 322.182437)scale(0.1 -0.1)">
       <use xlink:href="#DejaVuSans-53"/>
       <use x="63.623047" xlink:href="#DejaVuSans-48"/>
      </g>
     </g>
    </g>
    <g id="xtick_4">
     <g id="line2d_4">
      <g>
       <use style="stroke:#000000;stroke-width:0.8;" x="211.398213" xlink:href="#m2d396e3b02" y="307.584"/>
      </g>
     </g>
     <g id="text_4">
      <!-- 75 -->
      <defs>
       <path d="M 8.203125 72.90625 
L 55.078125 72.90625 
L 55.078125 68.703125 
L 28.609375 0 
L 18.3125 0 
L 43.21875 64.59375 
L 8.203125 64.59375 
z
" id="DejaVuSans-55"/>
      </defs>
      <g transform="translate(205.035713 322.182437)scale(0.1 -0.1)">
       <use xlink:href="#DejaVuSans-55"/>
       <use x="63.623047" xlink:href="#DejaVuSans-53"/>
      </g>
     </g>
    </g>
    <g id="xtick_5">
     <g id="line2d_5">
      <g>
       <use style="stroke:#000000;stroke-width:0.8;" x="257.253374" xlink:href="#m2d396e3b02" y="307.584"/>
      </g>
     </g>
     <g id="text_5">
      <!-- 100 -->
      <defs>
       <path d="M 12.40625 8.296875 
L 28.515625 8.296875 
L 28.515625 63.921875 
L 10.984375 60.40625 
L 10.984375 69.390625 
L 28.421875 72.90625 
L 38.28125 72.90625 
L 38.28125 8.296875 
L 54.390625 8.296875 
L 54.390625 0 
L 12.40625 0 
z
" id="DejaVuSans-49"/>
      </defs>
      <g transform="translate(247.709624 322.182437)scale(0.1 -0.1)">
       <use xlink:href="#DejaVuSans-49"/>
       <use x="63.623047" xlink:href="#DejaVuSans-48"/>
       <use x="127.246094" xlink:href="#DejaVuSans-48"/>
      </g>
     </g>
    </g>
    <g id="xtick_6">
     <g id="line2d_6">
      <g>
       <use style="stroke:#000000;stroke-width:0.8;" x="303.108536" xlink:href="#m2d396e3b02" y="307.584"/>
      </g>
     </g>
     <g id="text_6">
      <!-- 125 -->
      <g transform="translate(293.564786 322.182437)scale(0.1 -0.1)">
       <use xlink:href="#DejaVuSans-49"/>
       <use x="63.623047" xlink:href="#DejaVuSans-50"/>
       <use x="127.246094" xlink:href="#DejaVuSans-53"/>
      </g>
     </g>
    </g>
    <g id="xtick_7">
     <g id="line2d_7">
      <g>
       <use style="stroke:#000000;stroke-width:0.8;" x="348.963698" xlink:href="#m2d396e3b02" y="307.584"/>
      </g>
     </g>
     <g id="text_7">
      <!-- 150 -->
      <g transform="translate(339.419948 322.182437)scale(0.1 -0.1)">
       <use xlink:href="#DejaVuSans-49"/>
       <use x="63.623047" xlink:href="#DejaVuSans-53"/>
       <use x="127.246094" xlink:href="#DejaVuSans-48"/>
      </g>
     </g>
    </g>
    <g id="xtick_8">
     <g id="line2d_8">
      <g>
       <use style="stroke:#000000;stroke-width:0.8;" x="394.81886" xlink:href="#m2d396e3b02" y="307.584"/>
      </g>
     </g>
     <g id="text_8">
      <!-- 175 -->
      <g transform="translate(385.27511 322.182437)scale(0.1 -0.1)">
       <use xlink:href="#DejaVuSans-49"/>
       <use x="63.623047" xlink:href="#DejaVuSans-55"/>
       <use x="127.246094" xlink:href="#DejaVuSans-53"/>
      </g>
     </g>
    </g>
   </g>
   <g id="matplotlib.axis_2">
    <g id="ytick_1">
     <g id="line2d_9">
      <defs>
       <path d="M 0 0 
L -3.5 0 
" id="ma57d7f8af1" style="stroke:#000000;stroke-width:0.8;"/>
      </defs>
      <g>
       <use style="stroke:#000000;stroke-width:0.8;" x="57.6" xlink:href="#ma57d7f8af1" y="307.584"/>
      </g>
     </g>
     <g id="text_9">
      <!-- 0 -->
      <g transform="translate(44.2375 311.383219)scale(0.1 -0.1)">
       <use xlink:href="#DejaVuSans-48"/>
      </g>
     </g>
    </g>
    <g id="ytick_2">
     <g id="line2d_10">
      <g>
       <use style="stroke:#000000;stroke-width:0.8;" x="57.6" xlink:href="#ma57d7f8af1" y="271.378286"/>
      </g>
     </g>
     <g id="text_10">
      <!-- 100 -->
      <g transform="translate(31.5125 275.177504)scale(0.1 -0.1)">
       <use xlink:href="#DejaVuSans-49"/>
       <use x="63.623047" xlink:href="#DejaVuSans-48"/>
       <use x="127.246094" xlink:href="#DejaVuSans-48"/>
      </g>
     </g>
    </g>
    <g id="ytick_3">
     <g id="line2d_11">
      <g>
       <use style="stroke:#000000;stroke-width:0.8;" x="57.6" xlink:href="#ma57d7f8af1" y="235.172571"/>
      </g>
     </g>
     <g id="text_11">
      <!-- 200 -->
      <g transform="translate(31.5125 238.97179)scale(0.1 -0.1)">
       <use xlink:href="#DejaVuSans-50"/>
       <use x="63.623047" xlink:href="#DejaVuSans-48"/>
       <use x="127.246094" xlink:href="#DejaVuSans-48"/>
      </g>
     </g>
    </g>
    <g id="ytick_4">
     <g id="line2d_12">
      <g>
       <use style="stroke:#000000;stroke-width:0.8;" x="57.6" xlink:href="#ma57d7f8af1" y="198.966857"/>
      </g>
     </g>
     <g id="text_12">
      <!-- 300 -->
      <defs>
       <path d="M 40.578125 39.3125 
Q 47.65625 37.796875 51.625 33 
Q 55.609375 28.21875 55.609375 21.1875 
Q 55.609375 10.40625 48.1875 4.484375 
Q 40.765625 -1.421875 27.09375 -1.421875 
Q 22.515625 -1.421875 17.65625 -0.515625 
Q 12.796875 0.390625 7.625 2.203125 
L 7.625 11.71875 
Q 11.71875 9.328125 16.59375 8.109375 
Q 21.484375 6.890625 26.8125 6.890625 
Q 36.078125 6.890625 40.9375 10.546875 
Q 45.796875 14.203125 45.796875 21.1875 
Q 45.796875 27.640625 41.28125 31.265625 
Q 36.765625 34.90625 28.71875 34.90625 
L 20.21875 34.90625 
L 20.21875 43.015625 
L 29.109375 43.015625 
Q 36.375 43.015625 40.234375 45.921875 
Q 44.09375 48.828125 44.09375 54.296875 
Q 44.09375 59.90625 40.109375 62.90625 
Q 36.140625 65.921875 28.71875 65.921875 
Q 24.65625 65.921875 20.015625 65.03125 
Q 15.375 64.15625 9.8125 62.3125 
L 9.8125 71.09375 
Q 15.4375 72.65625 20.34375 73.4375 
Q 25.25 74.21875 29.59375 74.21875 
Q 40.828125 74.21875 47.359375 69.109375 
Q 53.90625 64.015625 53.90625 55.328125 
Q 53.90625 49.265625 50.4375 45.09375 
Q 46.96875 40.921875 40.578125 39.3125 
z
" id="DejaVuSans-51"/>
      </defs>
      <g transform="translate(31.5125 202.766076)scale(0.1 -0.1)">
       <use xlink:href="#DejaVuSans-51"/>
       <use x="63.623047" xlink:href="#DejaVuSans-48"/>
       <use x="127.246094" xlink:href="#DejaVuSans-48"/>
      </g>
     </g>
    </g>
    <g id="ytick_5">
     <g id="line2d_13">
      <g>
       <use style="stroke:#000000;stroke-width:0.8;" x="57.6" xlink:href="#ma57d7f8af1" y="162.761143"/>
      </g>
     </g>
     <g id="text_13">
      <!-- 400 -->
      <defs>
       <path d="M 37.796875 64.3125 
L 12.890625 25.390625 
L 37.796875 25.390625 
z
M 35.203125 72.90625 
L 47.609375 72.90625 
L 47.609375 25.390625 
L 58.015625 25.390625 
L 58.015625 17.1875 
L 47.609375 17.1875 
L 47.609375 0 
L 37.796875 0 
L 37.796875 17.1875 
L 4.890625 17.1875 
L 4.890625 26.703125 
z
" id="DejaVuSans-52"/>
      </defs>
      <g transform="translate(31.5125 166.560362)scale(0.1 -0.1)">
       <use xlink:href="#DejaVuSans-52"/>
       <use x="63.623047" xlink:href="#DejaVuSans-48"/>
       <use x="127.246094" xlink:href="#DejaVuSans-48"/>
      </g>
     </g>
    </g>
    <g id="ytick_6">
     <g id="line2d_14">
      <g>
       <use style="stroke:#000000;stroke-width:0.8;" x="57.6" xlink:href="#ma57d7f8af1" y="126.555429"/>
      </g>
     </g>
     <g id="text_14">
      <!-- 500 -->
      <g transform="translate(31.5125 130.354647)scale(0.1 -0.1)">
       <use xlink:href="#DejaVuSans-53"/>
       <use x="63.623047" xlink:href="#DejaVuSans-48"/>
       <use x="127.246094" xlink:href="#DejaVuSans-48"/>
      </g>
     </g>
    </g>
    <g id="ytick_7">
     <g id="line2d_15">
      <g>
       <use style="stroke:#000000;stroke-width:0.8;" x="57.6" xlink:href="#ma57d7f8af1" y="90.349714"/>
      </g>
     </g>
     <g id="text_15">
      <!-- 600 -->
      <defs>
       <path d="M 33.015625 40.375 
Q 26.375 40.375 22.484375 35.828125 
Q 18.609375 31.296875 18.609375 23.390625 
Q 18.609375 15.53125 22.484375 10.953125 
Q 26.375 6.390625 33.015625 6.390625 
Q 39.65625 6.390625 43.53125 10.953125 
Q 47.40625 15.53125 47.40625 23.390625 
Q 47.40625 31.296875 43.53125 35.828125 
Q 39.65625 40.375 33.015625 40.375 
z
M 52.59375 71.296875 
L 52.59375 62.3125 
Q 48.875 64.0625 45.09375 64.984375 
Q 41.3125 65.921875 37.59375 65.921875 
Q 27.828125 65.921875 22.671875 59.328125 
Q 17.53125 52.734375 16.796875 39.40625 
Q 19.671875 43.65625 24.015625 45.921875 
Q 28.375 48.1875 33.59375 48.1875 
Q 44.578125 48.1875 50.953125 41.515625 
Q 57.328125 34.859375 57.328125 23.390625 
Q 57.328125 12.15625 50.6875 5.359375 
Q 44.046875 -1.421875 33.015625 -1.421875 
Q 20.359375 -1.421875 13.671875 8.265625 
Q 6.984375 17.96875 6.984375 36.375 
Q 6.984375 53.65625 15.1875 63.9375 
Q 23.390625 74.21875 37.203125 74.21875 
Q 40.921875 74.21875 44.703125 73.484375 
Q 48.484375 72.75 52.59375 71.296875 
z
" id="DejaVuSans-54"/>
      </defs>
      <g transform="translate(31.5125 94.148933)scale(0.1 -0.1)">
       <use xlink:href="#DejaVuSans-54"/>
       <use x="63.623047" xlink:href="#DejaVuSans-48"/>
       <use x="127.246094" xlink:href="#DejaVuSans-48"/>
      </g>
     </g>
    </g>
    <g id="ytick_8">
     <g id="line2d_16">
      <g>
       <use style="stroke:#000000;stroke-width:0.8;" x="57.6" xlink:href="#ma57d7f8af1" y="54.144"/>
      </g>
     </g>
     <g id="text_16">
      <!-- 700 -->
      <g transform="translate(31.5125 57.943219)scale(0.1 -0.1)">
       <use xlink:href="#DejaVuSans-55"/>
       <use x="63.623047" xlink:href="#DejaVuSans-48"/>
       <use x="127.246094" xlink:href="#DejaVuSans-48"/>
      </g>
     </g>
    </g>
   </g>
   <g id="patch_153">
    <path d="M 57.6 307.584 
L 57.6 41.472 
" style="fill:none;stroke:#000000;stroke-linecap:square;stroke-linejoin:miter;stroke-width:0.8;"/>
   </g>
   <g id="patch_154">
    <path d="M 414.72 307.584 
L 414.72 41.472 
" style="fill:none;stroke:#000000;stroke-linecap:square;stroke-linejoin:miter;stroke-width:0.8;"/>
   </g>
   <g id="patch_155">
    <path d="M 57.6 307.584 
L 414.72 307.584 
" style="fill:none;stroke:#000000;stroke-linecap:square;stroke-linejoin:miter;stroke-width:0.8;"/>
   </g>
   <g id="patch_156">
    <path d="M 57.6 41.472 
L 414.72 41.472 
" style="fill:none;stroke:#000000;stroke-linecap:square;stroke-linejoin:miter;stroke-width:0.8;"/>
   </g>
   <g id="legend_1">
    <g id="patch_157">
     <path d="M 316.355938 93.506375 
L 407.72 93.506375 
Q 409.72 93.506375 409.72 91.506375 
L 409.72 48.472 
Q 409.72 46.472 407.72 46.472 
L 316.355938 46.472 
Q 314.355938 46.472 314.355938 48.472 
L 314.355938 91.506375 
Q 314.355938 93.506375 316.355938 93.506375 
z
" style="fill:#ffffff;opacity:0.8;stroke:#cccccc;stroke-linejoin:miter;"/>
    </g>
    <g id="patch_158">
     <path d="M 318.355938 58.070438 
L 338.355938 58.070438 
L 338.355938 51.070438 
L 318.355938 51.070438 
z
" style="fill:#1f77b4;opacity:0.4;"/>
    </g>
    <g id="text_17">
     <!-- background -->
     <defs>
      <path d="M 48.6875 27.296875 
Q 48.6875 37.203125 44.609375 42.84375 
Q 40.53125 48.484375 33.40625 48.484375 
Q 26.265625 48.484375 22.1875 42.84375 
Q 18.109375 37.203125 18.109375 27.296875 
Q 18.109375 17.390625 22.1875 11.75 
Q 26.265625 6.109375 33.40625 6.109375 
Q 40.53125 6.109375 44.609375 11.75 
Q 48.6875 17.390625 48.6875 27.296875 
z
M 18.109375 46.390625 
Q 20.953125 51.265625 25.265625 53.625 
Q 29.59375 56 35.59375 56 
Q 45.5625 56 51.78125 48.09375 
Q 58.015625 40.1875 58.015625 27.296875 
Q 58.015625 14.40625 51.78125 6.484375 
Q 45.5625 -1.421875 35.59375 -1.421875 
Q 29.59375 -1.421875 25.265625 0.953125 
Q 20.953125 3.328125 18.109375 8.203125 
L 18.109375 0 
L 9.078125 0 
L 9.078125 75.984375 
L 18.109375 75.984375 
z
" id="DejaVuSans-98"/>
      <path d="M 34.28125 27.484375 
Q 23.390625 27.484375 19.1875 25 
Q 14.984375 22.515625 14.984375 16.5 
Q 14.984375 11.71875 18.140625 8.90625 
Q 21.296875 6.109375 26.703125 6.109375 
Q 34.1875 6.109375 38.703125 11.40625 
Q 43.21875 16.703125 43.21875 25.484375 
L 43.21875 27.484375 
z
M 52.203125 31.203125 
L 52.203125 0 
L 43.21875 0 
L 43.21875 8.296875 
Q 40.140625 3.328125 35.546875 0.953125 
Q 30.953125 -1.421875 24.3125 -1.421875 
Q 15.921875 -1.421875 10.953125 3.296875 
Q 6 8.015625 6 15.921875 
Q 6 25.140625 12.171875 29.828125 
Q 18.359375 34.515625 30.609375 34.515625 
L 43.21875 34.515625 
L 43.21875 35.40625 
Q 43.21875 41.609375 39.140625 45 
Q 35.0625 48.390625 27.6875 48.390625 
Q 23 48.390625 18.546875 47.265625 
Q 14.109375 46.140625 10.015625 43.890625 
L 10.015625 52.203125 
Q 14.9375 54.109375 19.578125 55.046875 
Q 24.21875 56 28.609375 56 
Q 40.484375 56 46.34375 49.84375 
Q 52.203125 43.703125 52.203125 31.203125 
z
" id="DejaVuSans-97"/>
      <path d="M 48.78125 52.59375 
L 48.78125 44.1875 
Q 44.96875 46.296875 41.140625 47.34375 
Q 37.3125 48.390625 33.40625 48.390625 
Q 24.65625 48.390625 19.8125 42.84375 
Q 14.984375 37.3125 14.984375 27.296875 
Q 14.984375 17.28125 19.8125 11.734375 
Q 24.65625 6.203125 33.40625 6.203125 
Q 37.3125 6.203125 41.140625 7.25 
Q 44.96875 8.296875 48.78125 10.40625 
L 48.78125 2.09375 
Q 45.015625 0.34375 40.984375 -0.53125 
Q 36.96875 -1.421875 32.421875 -1.421875 
Q 20.0625 -1.421875 12.78125 6.34375 
Q 5.515625 14.109375 5.515625 27.296875 
Q 5.515625 40.671875 12.859375 48.328125 
Q 20.21875 56 33.015625 56 
Q 37.15625 56 41.109375 55.140625 
Q 45.0625 54.296875 48.78125 52.59375 
z
" id="DejaVuSans-99"/>
      <path d="M 9.078125 75.984375 
L 18.109375 75.984375 
L 18.109375 31.109375 
L 44.921875 54.6875 
L 56.390625 54.6875 
L 27.390625 29.109375 
L 57.625 0 
L 45.90625 0 
L 18.109375 26.703125 
L 18.109375 0 
L 9.078125 0 
z
" id="DejaVuSans-107"/>
      <path d="M 45.40625 27.984375 
Q 45.40625 37.75 41.375 43.109375 
Q 37.359375 48.484375 30.078125 48.484375 
Q 22.859375 48.484375 18.828125 43.109375 
Q 14.796875 37.75 14.796875 27.984375 
Q 14.796875 18.265625 18.828125 12.890625 
Q 22.859375 7.515625 30.078125 7.515625 
Q 37.359375 7.515625 41.375 12.890625 
Q 45.40625 18.265625 45.40625 27.984375 
z
M 54.390625 6.78125 
Q 54.390625 -7.171875 48.1875 -13.984375 
Q 42 -20.796875 29.203125 -20.796875 
Q 24.46875 -20.796875 20.265625 -20.09375 
Q 16.0625 -19.390625 12.109375 -17.921875 
L 12.109375 -9.1875 
Q 16.0625 -11.328125 19.921875 -12.34375 
Q 23.78125 -13.375 27.78125 -13.375 
Q 36.625 -13.375 41.015625 -8.765625 
Q 45.40625 -4.15625 45.40625 5.171875 
L 45.40625 9.625 
Q 42.625 4.78125 38.28125 2.390625 
Q 33.9375 0 27.875 0 
Q 17.828125 0 11.671875 7.65625 
Q 5.515625 15.328125 5.515625 27.984375 
Q 5.515625 40.671875 11.671875 48.328125 
Q 17.828125 56 27.875 56 
Q 33.9375 56 38.28125 53.609375 
Q 42.625 51.21875 45.40625 46.390625 
L 45.40625 54.6875 
L 54.390625 54.6875 
z
" id="DejaVuSans-103"/>
      <path d="M 41.109375 46.296875 
Q 39.59375 47.171875 37.8125 47.578125 
Q 36.03125 48 33.890625 48 
Q 26.265625 48 22.1875 43.046875 
Q 18.109375 38.09375 18.109375 28.8125 
L 18.109375 0 
L 9.078125 0 
L 9.078125 54.6875 
L 18.109375 54.6875 
L 18.109375 46.1875 
Q 20.953125 51.171875 25.484375 53.578125 
Q 30.03125 56 36.53125 56 
Q 37.453125 56 38.578125 55.875 
Q 39.703125 55.765625 41.0625 55.515625 
z
" id="DejaVuSans-114"/>
      <path d="M 30.609375 48.390625 
Q 23.390625 48.390625 19.1875 42.75 
Q 14.984375 37.109375 14.984375 27.296875 
Q 14.984375 17.484375 19.15625 11.84375 
Q 23.34375 6.203125 30.609375 6.203125 
Q 37.796875 6.203125 41.984375 11.859375 
Q 46.1875 17.53125 46.1875 27.296875 
Q 46.1875 37.015625 41.984375 42.703125 
Q 37.796875 48.390625 30.609375 48.390625 
z
M 30.609375 56 
Q 42.328125 56 49.015625 48.375 
Q 55.71875 40.765625 55.71875 27.296875 
Q 55.71875 13.875 49.015625 6.21875 
Q 42.328125 -1.421875 30.609375 -1.421875 
Q 18.84375 -1.421875 12.171875 6.21875 
Q 5.515625 13.875 5.515625 27.296875 
Q 5.515625 40.765625 12.171875 48.375 
Q 18.84375 56 30.609375 56 
z
" id="DejaVuSans-111"/>
      <path d="M 8.5 21.578125 
L 8.5 54.6875 
L 17.484375 54.6875 
L 17.484375 21.921875 
Q 17.484375 14.15625 20.5 10.265625 
Q 23.53125 6.390625 29.59375 6.390625 
Q 36.859375 6.390625 41.078125 11.03125 
Q 45.3125 15.671875 45.3125 23.6875 
L 45.3125 54.6875 
L 54.296875 54.6875 
L 54.296875 0 
L 45.3125 0 
L 45.3125 8.40625 
Q 42.046875 3.421875 37.71875 1 
Q 33.40625 -1.421875 27.6875 -1.421875 
Q 18.265625 -1.421875 13.375 4.4375 
Q 8.5 10.296875 8.5 21.578125 
z
M 31.109375 56 
z
" id="DejaVuSans-117"/>
      <path d="M 54.890625 33.015625 
L 54.890625 0 
L 45.90625 0 
L 45.90625 32.71875 
Q 45.90625 40.484375 42.875 44.328125 
Q 39.84375 48.1875 33.796875 48.1875 
Q 26.515625 48.1875 22.3125 43.546875 
Q 18.109375 38.921875 18.109375 30.90625 
L 18.109375 0 
L 9.078125 0 
L 9.078125 54.6875 
L 18.109375 54.6875 
L 18.109375 46.1875 
Q 21.34375 51.125 25.703125 53.5625 
Q 30.078125 56 35.796875 56 
Q 45.21875 56 50.046875 50.171875 
Q 54.890625 44.34375 54.890625 33.015625 
z
" id="DejaVuSans-110"/>
      <path d="M 45.40625 46.390625 
L 45.40625 75.984375 
L 54.390625 75.984375 
L 54.390625 0 
L 45.40625 0 
L 45.40625 8.203125 
Q 42.578125 3.328125 38.25 0.953125 
Q 33.9375 -1.421875 27.875 -1.421875 
Q 17.96875 -1.421875 11.734375 6.484375 
Q 5.515625 14.40625 5.515625 27.296875 
Q 5.515625 40.1875 11.734375 48.09375 
Q 17.96875 56 27.875 56 
Q 33.9375 56 38.25 53.625 
Q 42.578125 51.265625 45.40625 46.390625 
z
M 14.796875 27.296875 
Q 14.796875 17.390625 18.875 11.75 
Q 22.953125 6.109375 30.078125 6.109375 
Q 37.203125 6.109375 41.296875 11.75 
Q 45.40625 17.390625 45.40625 27.296875 
Q 45.40625 37.203125 41.296875 42.84375 
Q 37.203125 48.484375 30.078125 48.484375 
Q 22.953125 48.484375 18.875 42.84375 
Q 14.796875 37.203125 14.796875 27.296875 
z
" id="DejaVuSans-100"/>
     </defs>
     <g transform="translate(346.355938 58.070438)scale(0.1 -0.1)">
      <use xlink:href="#DejaVuSans-98"/>
      <use x="63.476562" xlink:href="#DejaVuSans-97"/>
      <use x="124.755859" xlink:href="#DejaVuSans-99"/>
      <use x="179.736328" xlink:href="#DejaVuSans-107"/>
      <use x="237.646484" xlink:href="#DejaVuSans-103"/>
      <use x="301.123047" xlink:href="#DejaVuSans-114"/>
      <use x="342.205078" xlink:href="#DejaVuSans-111"/>
      <use x="403.386719" xlink:href="#DejaVuSans-117"/>
      <use x="466.765625" xlink:href="#DejaVuSans-110"/>
      <use x="530.144531" xlink:href="#DejaVuSans-100"/>
     </g>
    </g>
    <g id="patch_159">
     <path d="M 318.355938 72.748563 
L 338.355938 72.748563 
L 338.355938 65.748563 
L 318.355938 65.748563 
z
" style="fill:#ff7f0e;opacity:0.3;"/>
    </g>
    <g id="text_18">
     <!-- internsity -->
     <defs>
      <path d="M 9.421875 54.6875 
L 18.40625 54.6875 
L 18.40625 0 
L 9.421875 0 
z
M 9.421875 75.984375 
L 18.40625 75.984375 
L 18.40625 64.59375 
L 9.421875 64.59375 
z
" id="DejaVuSans-105"/>
      <path d="M 18.3125 70.21875 
L 18.3125 54.6875 
L 36.8125 54.6875 
L 36.8125 47.703125 
L 18.3125 47.703125 
L 18.3125 18.015625 
Q 18.3125 11.328125 20.140625 9.421875 
Q 21.96875 7.515625 27.59375 7.515625 
L 36.8125 7.515625 
L 36.8125 0 
L 27.59375 0 
Q 17.1875 0 13.234375 3.875 
Q 9.28125 7.765625 9.28125 18.015625 
L 9.28125 47.703125 
L 2.6875 47.703125 
L 2.6875 54.6875 
L 9.28125 54.6875 
L 9.28125 70.21875 
z
" id="DejaVuSans-116"/>
      <path d="M 56.203125 29.59375 
L 56.203125 25.203125 
L 14.890625 25.203125 
Q 15.484375 15.921875 20.484375 11.0625 
Q 25.484375 6.203125 34.421875 6.203125 
Q 39.59375 6.203125 44.453125 7.46875 
Q 49.3125 8.734375 54.109375 11.28125 
L 54.109375 2.78125 
Q 49.265625 0.734375 44.1875 -0.34375 
Q 39.109375 -1.421875 33.890625 -1.421875 
Q 20.796875 -1.421875 13.15625 6.1875 
Q 5.515625 13.8125 5.515625 26.8125 
Q 5.515625 40.234375 12.765625 48.109375 
Q 20.015625 56 32.328125 56 
Q 43.359375 56 49.78125 48.890625 
Q 56.203125 41.796875 56.203125 29.59375 
z
M 47.21875 32.234375 
Q 47.125 39.59375 43.09375 43.984375 
Q 39.0625 48.390625 32.421875 48.390625 
Q 24.90625 48.390625 20.390625 44.140625 
Q 15.875 39.890625 15.1875 32.171875 
z
" id="DejaVuSans-101"/>
      <path d="M 44.28125 53.078125 
L 44.28125 44.578125 
Q 40.484375 46.53125 36.375 47.5 
Q 32.28125 48.484375 27.875 48.484375 
Q 21.1875 48.484375 17.84375 46.4375 
Q 14.5 44.390625 14.5 40.28125 
Q 14.5 37.15625 16.890625 35.375 
Q 19.28125 33.59375 26.515625 31.984375 
L 29.59375 31.296875 
Q 39.15625 29.25 43.1875 25.515625 
Q 47.21875 21.78125 47.21875 15.09375 
Q 47.21875 7.46875 41.1875 3.015625 
Q 35.15625 -1.421875 24.609375 -1.421875 
Q 20.21875 -1.421875 15.453125 -0.5625 
Q 10.6875 0.296875 5.421875 2 
L 5.421875 11.28125 
Q 10.40625 8.6875 15.234375 7.390625 
Q 20.0625 6.109375 24.8125 6.109375 
Q 31.15625 6.109375 34.5625 8.28125 
Q 37.984375 10.453125 37.984375 14.40625 
Q 37.984375 18.0625 35.515625 20.015625 
Q 33.0625 21.96875 24.703125 23.78125 
L 21.578125 24.515625 
Q 13.234375 26.265625 9.515625 29.90625 
Q 5.8125 33.546875 5.8125 39.890625 
Q 5.8125 47.609375 11.28125 51.796875 
Q 16.75 56 26.8125 56 
Q 31.78125 56 36.171875 55.265625 
Q 40.578125 54.546875 44.28125 53.078125 
z
" id="DejaVuSans-115"/>
      <path d="M 32.171875 -5.078125 
Q 28.375 -14.84375 24.75 -17.8125 
Q 21.140625 -20.796875 15.09375 -20.796875 
L 7.90625 -20.796875 
L 7.90625 -13.28125 
L 13.1875 -13.28125 
Q 16.890625 -13.28125 18.9375 -11.515625 
Q 21 -9.765625 23.484375 -3.21875 
L 25.09375 0.875 
L 2.984375 54.6875 
L 12.5 54.6875 
L 29.59375 11.921875 
L 46.6875 54.6875 
L 56.203125 54.6875 
z
" id="DejaVuSans-121"/>
     </defs>
     <g transform="translate(346.355938 72.748563)scale(0.1 -0.1)">
      <use xlink:href="#DejaVuSans-105"/>
      <use x="27.783203" xlink:href="#DejaVuSans-110"/>
      <use x="91.162109" xlink:href="#DejaVuSans-116"/>
      <use x="130.371094" xlink:href="#DejaVuSans-101"/>
      <use x="191.894531" xlink:href="#DejaVuSans-114"/>
      <use x="232.992188" xlink:href="#DejaVuSans-110"/>
      <use x="296.371094" xlink:href="#DejaVuSans-115"/>
      <use x="348.470703" xlink:href="#DejaVuSans-105"/>
      <use x="376.253906" xlink:href="#DejaVuSans-116"/>
      <use x="415.462891" xlink:href="#DejaVuSans-121"/>
     </g>
    </g>
    <g id="patch_160">
     <path d="M 318.355938 87.426688 
L 338.355938 87.426688 
L 338.355938 80.426688 
L 318.355938 80.426688 
z
" style="fill:#2ca02c;opacity:0.6;"/>
    </g>
    <g id="text_19">
     <!-- net -->
     <g transform="translate(346.355938 87.426688)scale(0.1 -0.1)">
      <use xlink:href="#DejaVuSans-110"/>
      <use x="63.378906" xlink:href="#DejaVuSans-101"/>
      <use x="124.902344" xlink:href="#DejaVuSans-116"/>
     </g>
    </g>
   </g>
  </g>
 </g>
 <defs>
  <clipPath id="p889f513384">
   <rect height="266.112" width="357.12" x="57.6" y="41.472"/>
  </clipPath>
 </defs>
</svg>
