<?xml version="1.0" encoding="utf-8" standalone="no"?>
<!DOCTYPE svg PUBLIC "-//W3C//DTD SVG 1.1//EN"
  "http://www.w3.org/Graphics/SVG/1.1/DTD/svg11.dtd">
<!-- Created with matplotlib (https://matplotlib.org/) -->
<svg height="345.6pt" version="1.1" viewBox="0 0 460.8 345.6" width="460.8pt" xmlns="http://www.w3.org/2000/svg" xmlns:xlink="http://www.w3.org/1999/xlink">
 <defs>
  <style type="text/css">
*{stroke-linecap:butt;stroke-linejoin:round;}
  </style>
 </defs>
 <g id="figure_1">
  <g id="patch_1">
   <path d="M 0 345.6 
L 460.8 345.6 
L 460.8 0 
L 0 0 
z
" style="fill:#ffffff;"/>
  </g>
  <g id="axes_1">
   <g id="patch_2">
    <path d="M 57.6 307.584 
L 414.72 307.584 
L 414.72 41.472 
L 57.6 41.472 
z
" style="fill:#ffffff;"/>
   </g>
   <g id="patch_3">
    <path clip-path="url(#p12fe55ab0b)" d="M 57.6 307.584 
L 60.759797 307.584 
L 60.759797 306.501018 
L 57.6 306.501018 
z
" style="fill:#1f77b4;opacity:0.4;"/>
   </g>
   <g id="patch_4">
    <path clip-path="url(#p12fe55ab0b)" d="M 60.759797 307.584 
L 63.919593 307.584 
L 63.919593 306.501018 
L 60.759797 306.501018 
z
" style="fill:#1f77b4;opacity:0.4;"/>
   </g>
   <g id="patch_5">
    <path clip-path="url(#p12fe55ab0b)" d="M 63.919593 307.584 
L 67.07939 307.584 
L 67.07939 306.501018 
L 63.919593 306.501018 
z
" style="fill:#1f77b4;opacity:0.4;"/>
   </g>
   <g id="patch_6">
    <path clip-path="url(#p12fe55ab0b)" d="M 67.07939 307.584 
L 70.239187 307.584 
L 70.239187 306.501018 
L 67.07939 306.501018 
z
" style="fill:#1f77b4;opacity:0.4;"/>
   </g>
   <g id="patch_7">
    <path clip-path="url(#p12fe55ab0b)" d="M 70.239187 307.584 
L 73.398983 307.584 
L 73.398983 306.501018 
L 70.239187 306.501018 
z
" style="fill:#1f77b4;opacity:0.4;"/>
   </g>
   <g id="patch_8">
    <path clip-path="url(#p12fe55ab0b)" d="M 73.398983 307.584 
L 76.55878 307.584 
L 76.55878 305.959528 
L 73.398983 305.959528 
z
" style="fill:#1f77b4;opacity:0.4;"/>
   </g>
   <g id="patch_9">
    <path clip-path="url(#p12fe55ab0b)" d="M 76.55878 307.584 
L 79.718576 307.584 
L 79.718576 307.042509 
L 76.55878 307.042509 
z
" style="fill:#1f77b4;opacity:0.4;"/>
   </g>
   <g id="patch_10">
    <path clip-path="url(#p12fe55ab0b)" d="M 79.718576 307.584 
L 82.878373 307.584 
L 82.878373 307.042509 
L 79.718576 307.042509 
z
" style="fill:#1f77b4;opacity:0.4;"/>
   </g>
   <g id="patch_11">
    <path clip-path="url(#p12fe55ab0b)" d="M 82.878373 307.584 
L 86.03817 307.584 
L 86.03817 307.584 
L 82.878373 307.584 
z
" style="fill:#1f77b4;opacity:0.4;"/>
   </g>
   <g id="patch_12">
    <path clip-path="url(#p12fe55ab0b)" d="M 86.03817 307.584 
L 89.197966 307.584 
L 89.197966 307.042509 
L 86.03817 307.042509 
z
" style="fill:#1f77b4;opacity:0.4;"/>
   </g>
   <g id="patch_13">
    <path clip-path="url(#p12fe55ab0b)" d="M 89.197966 307.584 
L 92.357763 307.584 
L 92.357763 307.584 
L 89.197966 307.584 
z
" style="fill:#1f77b4;opacity:0.4;"/>
   </g>
   <g id="patch_14">
    <path clip-path="url(#p12fe55ab0b)" d="M 92.357763 307.584 
L 95.51756 307.584 
L 95.51756 303.793565 
L 92.357763 303.793565 
z
" style="fill:#1f77b4;opacity:0.4;"/>
   </g>
   <g id="patch_15">
    <path clip-path="url(#p12fe55ab0b)" d="M 95.51756 307.584 
L 98.677356 307.584 
L 98.677356 299.461638 
L 95.51756 299.461638 
z
" style="fill:#1f77b4;opacity:0.4;"/>
   </g>
   <g id="patch_16">
    <path clip-path="url(#p12fe55ab0b)" d="M 98.677356 307.584 
L 101.837153 307.584 
L 101.837153 287.007351 
L 98.677356 287.007351 
z
" style="fill:#1f77b4;opacity:0.4;"/>
   </g>
   <g id="patch_17">
    <path clip-path="url(#p12fe55ab0b)" d="M 101.837153 307.584 
L 104.99695 307.584 
L 104.99695 276.177536 
L 101.837153 276.177536 
z
" style="fill:#1f77b4;opacity:0.4;"/>
   </g>
   <g id="patch_18">
    <path clip-path="url(#p12fe55ab0b)" d="M 104.99695 307.584 
L 108.156746 307.584 
L 108.156746 252.893433 
L 104.99695 252.893433 
z
" style="fill:#1f77b4;opacity:0.4;"/>
   </g>
   <g id="patch_19">
    <path clip-path="url(#p12fe55ab0b)" d="M 108.156746 307.584 
L 111.316543 307.584 
L 111.316543 227.443367 
L 108.156746 227.443367 
z
" style="fill:#1f77b4;opacity:0.4;"/>
   </g>
   <g id="patch_20">
    <path clip-path="url(#p12fe55ab0b)" d="M 111.316543 307.584 
L 114.47634 307.584 
L 114.47634 223.652931 
L 111.316543 223.652931 
z
" style="fill:#1f77b4;opacity:0.4;"/>
   </g>
   <g id="patch_21">
    <path clip-path="url(#p12fe55ab0b)" d="M 114.47634 307.584 
L 117.636136 307.584 
L 117.636136 181.958142 
L 114.47634 181.958142 
z
" style="fill:#1f77b4;opacity:0.4;"/>
   </g>
   <g id="patch_22">
    <path clip-path="url(#p12fe55ab0b)" d="M 117.636136 307.584 
L 120.795933 307.584 
L 120.795933 208.49119 
L 117.636136 208.49119 
z
" style="fill:#1f77b4;opacity:0.4;"/>
   </g>
   <g id="patch_23">
    <path clip-path="url(#p12fe55ab0b)" d="M 120.795933 307.584 
L 123.955729 307.584 
L 123.955729 207.949699 
L 120.795933 207.949699 
z
" style="fill:#1f77b4;opacity:0.4;"/>
   </g>
   <g id="patch_24">
    <path clip-path="url(#p12fe55ab0b)" d="M 123.955729 307.584 
L 127.115526 307.584 
L 127.115526 235.024237 
L 123.955729 235.024237 
z
" style="fill:#1f77b4;opacity:0.4;"/>
   </g>
   <g id="patch_25">
    <path clip-path="url(#p12fe55ab0b)" d="M 127.115526 307.584 
L 130.275323 307.584 
L 130.275323 266.430702 
L 127.115526 266.430702 
z
" style="fill:#1f77b4;opacity:0.4;"/>
   </g>
   <g id="patch_26">
    <path clip-path="url(#p12fe55ab0b)" d="M 130.275323 307.584 
L 133.435119 307.584 
L 133.435119 278.343499 
L 130.275323 278.343499 
z
" style="fill:#1f77b4;opacity:0.4;"/>
   </g>
   <g id="patch_27">
    <path clip-path="url(#p12fe55ab0b)" d="M 133.435119 307.584 
L 136.594916 307.584 
L 136.594916 291.339277 
L 133.435119 291.339277 
z
" style="fill:#1f77b4;opacity:0.4;"/>
   </g>
   <g id="patch_28">
    <path clip-path="url(#p12fe55ab0b)" d="M 136.594916 307.584 
L 139.754713 307.584 
L 139.754713 289.173314 
L 136.594916 289.173314 
z
" style="fill:#1f77b4;opacity:0.4;"/>
   </g>
   <g id="patch_29">
    <path clip-path="url(#p12fe55ab0b)" d="M 139.754713 307.584 
L 142.914509 307.584 
L 142.914509 294.046731 
L 139.754713 294.046731 
z
" style="fill:#1f77b4;opacity:0.4;"/>
   </g>
   <g id="patch_30">
    <path clip-path="url(#p12fe55ab0b)" d="M 142.914509 307.584 
L 146.074306 307.584 
L 146.074306 290.797786 
L 142.914509 290.797786 
z
" style="fill:#1f77b4;opacity:0.4;"/>
   </g>
   <g id="patch_31">
    <path clip-path="url(#p12fe55ab0b)" d="M 146.074306 307.584 
L 149.234103 307.584 
L 149.234103 277.260517 
L 146.074306 277.260517 
z
" style="fill:#1f77b4;opacity:0.4;"/>
   </g>
   <g id="patch_32">
    <path clip-path="url(#p12fe55ab0b)" d="M 149.234103 307.584 
L 152.393899 307.584 
L 152.393899 270.762628 
L 149.234103 270.762628 
z
" style="fill:#1f77b4;opacity:0.4;"/>
   </g>
   <g id="patch_33">
    <path clip-path="url(#p12fe55ab0b)" d="M 152.393899 307.584 
L 155.553696 307.584 
L 155.553696 256.142377 
L 152.393899 256.142377 
z
" style="fill:#1f77b4;opacity:0.4;"/>
   </g>
   <g id="patch_34">
    <path clip-path="url(#p12fe55ab0b)" d="M 155.553696 307.584 
L 158.713493 307.584 
L 158.713493 251.810451 
L 155.553696 251.810451 
z
" style="fill:#1f77b4;opacity:0.4;"/>
   </g>
   <g id="patch_35">
    <path clip-path="url(#p12fe55ab0b)" d="M 158.713493 307.584 
L 161.873289 307.584 
L 161.873289 258.849831 
L 158.713493 258.849831 
z
" style="fill:#1f77b4;opacity:0.4;"/>
   </g>
   <g id="patch_36">
    <path clip-path="url(#p12fe55ab0b)" d="M 161.873289 307.584 
L 165.033086 307.584 
L 165.033086 252.893433 
L 161.873289 252.893433 
z
" style="fill:#1f77b4;opacity:0.4;"/>
   </g>
   <g id="patch_37">
    <path clip-path="url(#p12fe55ab0b)" d="M 165.033086 307.584 
L 168.192882 307.584 
L 168.192882 266.430702 
L 165.033086 266.430702 
z
" style="fill:#1f77b4;opacity:0.4;"/>
   </g>
   <g id="patch_38">
    <path clip-path="url(#p12fe55ab0b)" d="M 168.192882 307.584 
L 171.352679 307.584 
L 171.352679 269.138156 
L 168.192882 269.138156 
z
" style="fill:#1f77b4;opacity:0.4;"/>
   </g>
   <g id="patch_39">
    <path clip-path="url(#p12fe55ab0b)" d="M 171.352679 307.584 
L 174.512476 307.584 
L 174.512476 277.260517 
L 171.352679 277.260517 
z
" style="fill:#1f77b4;opacity:0.4;"/>
   </g>
   <g id="patch_40">
    <path clip-path="url(#p12fe55ab0b)" d="M 174.512476 307.584 
L 177.672272 307.584 
L 177.672272 290.797786 
L 174.512476 290.797786 
z
" style="fill:#1f77b4;opacity:0.4;"/>
   </g>
   <g id="patch_41">
    <path clip-path="url(#p12fe55ab0b)" d="M 177.672272 307.584 
L 180.832069 307.584 
L 180.832069 300.003129 
L 177.672272 300.003129 
z
" style="fill:#1f77b4;opacity:0.4;"/>
   </g>
   <g id="patch_42">
    <path clip-path="url(#p12fe55ab0b)" d="M 180.832069 307.584 
L 183.991866 307.584 
L 183.991866 300.54462 
L 180.832069 300.54462 
z
" style="fill:#1f77b4;opacity:0.4;"/>
   </g>
   <g id="patch_43">
    <path clip-path="url(#p12fe55ab0b)" d="M 183.991866 307.584 
L 187.151662 307.584 
L 187.151662 300.54462 
L 183.991866 300.54462 
z
" style="fill:#1f77b4;opacity:0.4;"/>
   </g>
   <g id="patch_44">
    <path clip-path="url(#p12fe55ab0b)" d="M 187.151662 307.584 
L 190.311459 307.584 
L 190.311459 303.252074 
L 187.151662 303.252074 
z
" style="fill:#1f77b4;opacity:0.4;"/>
   </g>
   <g id="patch_45">
    <path clip-path="url(#p12fe55ab0b)" d="M 190.311459 307.584 
L 193.471256 307.584 
L 193.471256 302.710583 
L 190.311459 302.710583 
z
" style="fill:#1f77b4;opacity:0.4;"/>
   </g>
   <g id="patch_46">
    <path clip-path="url(#p12fe55ab0b)" d="M 193.471256 307.584 
L 196.631052 307.584 
L 196.631052 302.710583 
L 193.471256 302.710583 
z
" style="fill:#1f77b4;opacity:0.4;"/>
   </g>
   <g id="patch_47">
    <path clip-path="url(#p12fe55ab0b)" d="M 196.631052 307.584 
L 199.790849 307.584 
L 199.790849 304.335055 
L 196.631052 304.335055 
z
" style="fill:#1f77b4;opacity:0.4;"/>
   </g>
   <g id="patch_48">
    <path clip-path="url(#p12fe55ab0b)" d="M 199.790849 307.584 
L 202.950645 307.584 
L 202.950645 305.418037 
L 199.790849 305.418037 
z
" style="fill:#1f77b4;opacity:0.4;"/>
   </g>
   <g id="patch_49">
    <path clip-path="url(#p12fe55ab0b)" d="M 202.950645 307.584 
L 206.110442 307.584 
L 206.110442 305.959528 
L 202.950645 305.959528 
z
" style="fill:#1f77b4;opacity:0.4;"/>
   </g>
   <g id="patch_50">
    <path clip-path="url(#p12fe55ab0b)" d="M 206.110442 307.584 
L 209.270239 307.584 
L 209.270239 303.793565 
L 206.110442 303.793565 
z
" style="fill:#1f77b4;opacity:0.4;"/>
   </g>
   <g id="patch_51">
    <path clip-path="url(#p12fe55ab0b)" d="M 209.270239 307.584 
L 212.430035 307.584 
L 212.430035 304.876546 
L 209.270239 304.876546 
z
" style="fill:#1f77b4;opacity:0.4;"/>
   </g>
   <g id="patch_52">
    <path clip-path="url(#p12fe55ab0b)" d="M 212.430035 307.584 
L 215.589832 307.584 
L 215.589832 305.959528 
L 212.430035 305.959528 
z
" style="fill:#1f77b4;opacity:0.4;"/>
   </g>
   <g id="patch_53">
    <path clip-path="url(#p12fe55ab0b)" d="M 93.312 307.584 
L 99.62112 307.584 
L 99.62112 303.516078 
L 93.312 303.516078 
z
" style="fill:#ff7f0e;opacity:0.5;"/>
   </g>
   <g id="patch_54">
    <path clip-path="url(#p12fe55ab0b)" d="M 99.62112 307.584 
L 105.93024 307.584 
L 105.93024 298.092181 
L 99.62112 298.092181 
z
" style="fill:#ff7f0e;opacity:0.5;"/>
   </g>
   <g id="patch_55">
    <path clip-path="url(#p12fe55ab0b)" d="M 105.93024 307.584 
L 112.23936 307.584 
L 112.23936 285.888414 
L 105.93024 285.888414 
z
" style="fill:#ff7f0e;opacity:0.5;"/>
   </g>
   <g id="patch_56">
    <path clip-path="url(#p12fe55ab0b)" d="M 112.23936 307.584 
L 118.54848 307.584 
L 118.54848 263.650438 
L 112.23936 263.650438 
z
" style="fill:#ff7f0e;opacity:0.5;"/>
   </g>
   <g id="patch_57">
    <path clip-path="url(#p12fe55ab0b)" d="M 118.54848 307.584 
L 124.8576 307.584 
L 124.8576 244.395605 
L 118.54848 244.395605 
z
" style="fill:#ff7f0e;opacity:0.5;"/>
   </g>
   <g id="patch_58">
    <path clip-path="url(#p12fe55ab0b)" d="M 124.8576 307.584 
L 131.16672 307.584 
L 131.16672 220.530461 
L 124.8576 220.530461 
z
" style="fill:#ff7f0e;opacity:0.5;"/>
   </g>
   <g id="patch_59">
    <path clip-path="url(#p12fe55ab0b)" d="M 131.16672 307.584 
L 137.47584 307.584 
L 137.47584 248.192333 
L 131.16672 248.192333 
z
" style="fill:#ff7f0e;opacity:0.5;"/>
   </g>
   <g id="patch_60">
    <path clip-path="url(#p12fe55ab0b)" d="M 137.47584 307.584 
L 143.78496 307.584 
L 143.78496 263.650438 
L 137.47584 263.650438 
z
" style="fill:#ff7f0e;opacity:0.5;"/>
   </g>
   <g id="patch_61">
    <path clip-path="url(#p12fe55ab0b)" d="M 143.78496 307.584 
L 150.09408 307.584 
L 150.09408 270.701504 
L 143.78496 270.701504 
z
" style="fill:#ff7f0e;opacity:0.5;"/>
   </g>
   <g id="patch_62">
    <path clip-path="url(#p12fe55ab0b)" d="M 150.09408 307.584 
L 156.4032 307.584 
L 156.4032 278.294959 
L 150.09408 278.294959 
z
" style="fill:#ff7f0e;opacity:0.5;"/>
   </g>
   <g id="patch_63">
    <path clip-path="url(#p12fe55ab0b)" d="M 156.4032 307.584 
L 162.71232 307.584 
L 162.71232 278.294959 
L 156.4032 278.294959 
z
" style="fill:#ff7f0e;opacity:0.5;"/>
   </g>
   <g id="patch_64">
    <path clip-path="url(#p12fe55ab0b)" d="M 162.71232 307.584 
L 169.02144 307.584 
L 169.02144 271.243893 
L 162.71232 271.243893 
z
" style="fill:#ff7f0e;opacity:0.5;"/>
   </g>
   <g id="patch_65">
    <path clip-path="url(#p12fe55ab0b)" d="M 169.02144 307.584 
L 175.33056 307.584 
L 175.33056 280.464517 
L 169.02144 280.464517 
z
" style="fill:#ff7f0e;opacity:0.5;"/>
   </g>
   <g id="patch_66">
    <path clip-path="url(#p12fe55ab0b)" d="M 175.33056 307.584 
L 181.63968 307.584 
L 181.63968 282.091686 
L 175.33056 282.091686 
z
" style="fill:#ff7f0e;opacity:0.5;"/>
   </g>
   <g id="patch_67">
    <path clip-path="url(#p12fe55ab0b)" d="M 181.63968 307.584 
L 187.9488 307.584 
L 187.9488 274.227036 
L 181.63968 274.227036 
z
" style="fill:#ff7f0e;opacity:0.5;"/>
   </g>
   <g id="patch_68">
    <path clip-path="url(#p12fe55ab0b)" d="M 187.9488 307.584 
L 194.25792 307.584 
L 194.25792 285.346024 
L 187.9488 285.346024 
z
" style="fill:#ff7f0e;opacity:0.5;"/>
   </g>
   <g id="patch_69">
    <path clip-path="url(#p12fe55ab0b)" d="M 194.25792 307.584 
L 200.56704 307.584 
L 200.56704 285.888414 
L 194.25792 285.888414 
z
" style="fill:#ff7f0e;opacity:0.5;"/>
   </g>
   <g id="patch_70">
    <path clip-path="url(#p12fe55ab0b)" d="M 200.56704 307.584 
L 206.87616 307.584 
L 206.87616 298.363376 
L 200.56704 298.363376 
z
" style="fill:#ff7f0e;opacity:0.5;"/>
   </g>
   <g id="patch_71">
    <path clip-path="url(#p12fe55ab0b)" d="M 206.87616 307.584 
L 213.18528 307.584 
L 213.18528 301.888909 
L 206.87616 301.888909 
z
" style="fill:#ff7f0e;opacity:0.5;"/>
   </g>
   <g id="patch_72">
    <path clip-path="url(#p12fe55ab0b)" d="M 213.18528 307.584 
L 219.4944 307.584 
L 219.4944 300.26174 
L 213.18528 300.26174 
z
" style="fill:#ff7f0e;opacity:0.5;"/>
   </g>
   <g id="patch_73">
    <path clip-path="url(#p12fe55ab0b)" d="M 219.4944 307.584 
L 225.80352 307.584 
L 225.80352 302.973688 
L 219.4944 302.973688 
z
" style="fill:#ff7f0e;opacity:0.5;"/>
   </g>
   <g id="patch_74">
    <path clip-path="url(#p12fe55ab0b)" d="M 225.80352 307.584 
L 232.11264 307.584 
L 232.11264 303.787272 
L 225.80352 303.787272 
z
" style="fill:#ff7f0e;opacity:0.5;"/>
   </g>
   <g id="patch_75">
    <path clip-path="url(#p12fe55ab0b)" d="M 232.11264 307.584 
L 238.42176 307.584 
L 238.42176 305.685636 
L 232.11264 305.685636 
z
" style="fill:#ff7f0e;opacity:0.5;"/>
   </g>
   <g id="patch_76">
    <path clip-path="url(#p12fe55ab0b)" d="M 238.42176 307.584 
L 244.73088 307.584 
L 244.73088 306.228026 
L 238.42176 306.228026 
z
" style="fill:#ff7f0e;opacity:0.5;"/>
   </g>
   <g id="patch_77">
    <path clip-path="url(#p12fe55ab0b)" d="M 244.73088 307.584 
L 251.04 307.584 
L 251.04 306.228026 
L 244.73088 306.228026 
z
" style="fill:#ff7f0e;opacity:0.5;"/>
   </g>
   <g id="patch_78">
    <path clip-path="url(#p12fe55ab0b)" d="M 251.04 307.584 
L 257.34912 307.584 
L 257.34912 306.228026 
L 251.04 306.228026 
z
" style="fill:#ff7f0e;opacity:0.5;"/>
   </g>
   <g id="patch_79">
    <path clip-path="url(#p12fe55ab0b)" d="M 257.34912 307.584 
L 263.65824 307.584 
L 263.65824 305.956831 
L 257.34912 305.956831 
z
" style="fill:#ff7f0e;opacity:0.5;"/>
   </g>
   <g id="patch_80">
    <path clip-path="url(#p12fe55ab0b)" d="M 263.65824 307.584 
L 269.96736 307.584 
L 269.96736 306.228026 
L 263.65824 306.228026 
z
" style="fill:#ff7f0e;opacity:0.5;"/>
   </g>
   <g id="patch_81">
    <path clip-path="url(#p12fe55ab0b)" d="M 269.96736 307.584 
L 276.27648 307.584 
L 276.27648 306.770416 
L 269.96736 306.770416 
z
" style="fill:#ff7f0e;opacity:0.5;"/>
   </g>
   <g id="patch_82">
    <path clip-path="url(#p12fe55ab0b)" d="M 276.27648 307.584 
L 282.5856 307.584 
L 282.5856 307.04161 
L 276.27648 307.04161 
z
" style="fill:#ff7f0e;opacity:0.5;"/>
   </g>
   <g id="patch_83">
    <path clip-path="url(#p12fe55ab0b)" d="M 282.5856 307.584 
L 288.89472 307.584 
L 288.89472 307.04161 
L 282.5856 307.04161 
z
" style="fill:#ff7f0e;opacity:0.5;"/>
   </g>
   <g id="patch_84">
    <path clip-path="url(#p12fe55ab0b)" d="M 288.89472 307.584 
L 295.20384 307.584 
L 295.20384 307.312805 
L 288.89472 307.312805 
z
" style="fill:#ff7f0e;opacity:0.5;"/>
   </g>
   <g id="patch_85">
    <path clip-path="url(#p12fe55ab0b)" d="M 295.20384 307.584 
L 301.51296 307.584 
L 301.51296 306.499221 
L 295.20384 306.499221 
z
" style="fill:#ff7f0e;opacity:0.5;"/>
   </g>
   <g id="patch_86">
    <path clip-path="url(#p12fe55ab0b)" d="M 301.51296 307.584 
L 307.82208 307.584 
L 307.82208 307.584 
L 301.51296 307.584 
z
" style="fill:#ff7f0e;opacity:0.5;"/>
   </g>
   <g id="patch_87">
    <path clip-path="url(#p12fe55ab0b)" d="M 307.82208 307.584 
L 314.1312 307.584 
L 314.1312 307.312805 
L 307.82208 307.312805 
z
" style="fill:#ff7f0e;opacity:0.5;"/>
   </g>
   <g id="patch_88">
    <path clip-path="url(#p12fe55ab0b)" d="M 314.1312 307.584 
L 320.44032 307.584 
L 320.44032 307.04161 
L 314.1312 307.04161 
z
" style="fill:#ff7f0e;opacity:0.5;"/>
   </g>
   <g id="patch_89">
    <path clip-path="url(#p12fe55ab0b)" d="M 320.44032 307.584 
L 326.74944 307.584 
L 326.74944 307.584 
L 320.44032 307.584 
z
" style="fill:#ff7f0e;opacity:0.5;"/>
   </g>
   <g id="patch_90">
    <path clip-path="url(#p12fe55ab0b)" d="M 326.74944 307.584 
L 333.05856 307.584 
L 333.05856 306.770416 
L 326.74944 306.770416 
z
" style="fill:#ff7f0e;opacity:0.5;"/>
   </g>
   <g id="patch_91">
    <path clip-path="url(#p12fe55ab0b)" d="M 333.05856 307.584 
L 339.36768 307.584 
L 339.36768 307.04161 
L 333.05856 307.04161 
z
" style="fill:#ff7f0e;opacity:0.5;"/>
   </g>
   <g id="patch_92">
    <path clip-path="url(#p12fe55ab0b)" d="M 339.36768 307.584 
L 345.6768 307.584 
L 345.6768 307.584 
L 339.36768 307.584 
z
" style="fill:#ff7f0e;opacity:0.5;"/>
   </g>
   <g id="patch_93">
    <path clip-path="url(#p12fe55ab0b)" d="M 345.6768 307.584 
L 351.98592 307.584 
L 351.98592 307.584 
L 345.6768 307.584 
z
" style="fill:#ff7f0e;opacity:0.5;"/>
   </g>
   <g id="patch_94">
    <path clip-path="url(#p12fe55ab0b)" d="M 351.98592 307.584 
L 358.29504 307.584 
L 358.29504 307.312805 
L 351.98592 307.312805 
z
" style="fill:#ff7f0e;opacity:0.5;"/>
   </g>
   <g id="patch_95">
    <path clip-path="url(#p12fe55ab0b)" d="M 358.29504 307.584 
L 364.60416 307.584 
L 364.60416 307.584 
L 358.29504 307.584 
z
" style="fill:#ff7f0e;opacity:0.5;"/>
   </g>
   <g id="patch_96">
    <path clip-path="url(#p12fe55ab0b)" d="M 364.60416 307.584 
L 370.91328 307.584 
L 370.91328 307.584 
L 364.60416 307.584 
z
" style="fill:#ff7f0e;opacity:0.5;"/>
   </g>
   <g id="patch_97">
    <path clip-path="url(#p12fe55ab0b)" d="M 370.91328 307.584 
L 377.2224 307.584 
L 377.2224 307.584 
L 370.91328 307.584 
z
" style="fill:#ff7f0e;opacity:0.5;"/>
   </g>
   <g id="patch_98">
    <path clip-path="url(#p12fe55ab0b)" d="M 377.2224 307.584 
L 383.53152 307.584 
L 383.53152 307.584 
L 377.2224 307.584 
z
" style="fill:#ff7f0e;opacity:0.5;"/>
   </g>
   <g id="patch_99">
    <path clip-path="url(#p12fe55ab0b)" d="M 383.53152 307.584 
L 389.84064 307.584 
L 389.84064 307.584 
L 383.53152 307.584 
z
" style="fill:#ff7f0e;opacity:0.5;"/>
   </g>
   <g id="patch_100">
    <path clip-path="url(#p12fe55ab0b)" d="M 389.84064 307.584 
L 396.14976 307.584 
L 396.14976 307.584 
L 389.84064 307.584 
z
" style="fill:#ff7f0e;opacity:0.5;"/>
   </g>
   <g id="patch_101">
    <path clip-path="url(#p12fe55ab0b)" d="M 396.14976 307.584 
L 402.45888 307.584 
L 402.45888 307.312805 
L 396.14976 307.312805 
z
" style="fill:#ff7f0e;opacity:0.5;"/>
   </g>
   <g id="patch_102">
    <path clip-path="url(#p12fe55ab0b)" d="M 402.45888 307.584 
L 408.768 307.584 
L 408.768 307.04161 
L 402.45888 307.04161 
z
" style="fill:#ff7f0e;opacity:0.5;"/>
   </g>
   <g id="patch_103">
    <path clip-path="url(#p12fe55ab0b)" d="M 57.6 307.584 
L 62.325775 307.584 
L 62.325775 54.144 
L 57.6 54.144 
z
" style="fill:#2ca02c;opacity:0.6;"/>
   </g>
   <g id="patch_104">
    <path clip-path="url(#p12fe55ab0b)" d="M 62.325775 307.584 
L 67.051551 307.584 
L 67.051551 212.000914 
L 62.325775 212.000914 
z
" style="fill:#2ca02c;opacity:0.6;"/>
   </g>
   <g id="patch_105">
    <path clip-path="url(#p12fe55ab0b)" d="M 67.051551 307.584 
L 71.777326 307.584 
L 71.777326 204.397714 
L 67.051551 204.397714 
z
" style="fill:#2ca02c;opacity:0.6;"/>
   </g>
   <g id="patch_106">
    <path clip-path="url(#p12fe55ab0b)" d="M 71.777326 307.584 
L 76.503101 307.584 
L 76.503101 216.3456 
L 71.777326 216.3456 
z
" style="fill:#2ca02c;opacity:0.6;"/>
   </g>
   <g id="patch_107">
    <path clip-path="url(#p12fe55ab0b)" d="M 76.503101 307.584 
L 81.228877 307.584 
L 81.228877 236.258743 
L 76.503101 236.258743 
z
" style="fill:#2ca02c;opacity:0.6;"/>
   </g>
   <g id="patch_108">
    <path clip-path="url(#p12fe55ab0b)" d="M 81.228877 307.584 
L 85.954652 307.584 
L 85.954652 236.982857 
L 81.228877 236.982857 
z
" style="fill:#2ca02c;opacity:0.6;"/>
   </g>
   <g id="patch_109">
    <path clip-path="url(#p12fe55ab0b)" d="M 85.954652 307.584 
L 90.680427 307.584 
L 90.680427 259.4304 
L 85.954652 259.4304 
z
" style="fill:#2ca02c;opacity:0.6;"/>
   </g>
   <g id="patch_110">
    <path clip-path="url(#p12fe55ab0b)" d="M 90.680427 307.584 
L 95.406202 307.584 
L 95.406202 272.464457 
L 90.680427 272.464457 
z
" style="fill:#2ca02c;opacity:0.6;"/>
   </g>
   <g id="patch_111">
    <path clip-path="url(#p12fe55ab0b)" d="M 95.406202 307.584 
L 100.131978 307.584 
L 100.131978 281.877943 
L 95.406202 281.877943 
z
" style="fill:#2ca02c;opacity:0.6;"/>
   </g>
   <g id="patch_112">
    <path clip-path="url(#p12fe55ab0b)" d="M 100.131978 307.584 
L 104.857753 307.584 
L 104.857753 289.8432 
L 100.131978 289.8432 
z
" style="fill:#2ca02c;opacity:0.6;"/>
   </g>
   <g id="patch_113">
    <path clip-path="url(#p12fe55ab0b)" d="M 104.857753 307.584 
L 109.583528 307.584 
L 109.583528 294.549943 
L 104.857753 294.549943 
z
" style="fill:#2ca02c;opacity:0.6;"/>
   </g>
   <g id="patch_114">
    <path clip-path="url(#p12fe55ab0b)" d="M 109.583528 307.584 
L 114.309304 307.584 
L 114.309304 299.618743 
L 109.583528 299.618743 
z
" style="fill:#2ca02c;opacity:0.6;"/>
   </g>
   <g id="patch_115">
    <path clip-path="url(#p12fe55ab0b)" d="M 114.309304 307.584 
L 119.035079 307.584 
L 119.035079 303.963429 
L 114.309304 303.963429 
z
" style="fill:#2ca02c;opacity:0.6;"/>
   </g>
   <g id="patch_116">
    <path clip-path="url(#p12fe55ab0b)" d="M 119.035079 307.584 
L 123.760854 307.584 
L 123.760854 304.325486 
L 119.035079 304.325486 
z
" style="fill:#2ca02c;opacity:0.6;"/>
   </g>
   <g id="patch_117">
    <path clip-path="url(#p12fe55ab0b)" d="M 123.760854 307.584 
L 128.48663 307.584 
L 128.48663 305.0496 
L 123.760854 305.0496 
z
" style="fill:#2ca02c;opacity:0.6;"/>
   </g>
   <g id="patch_118">
    <path clip-path="url(#p12fe55ab0b)" d="M 128.48663 307.584 
L 133.212405 307.584 
L 133.212405 306.135771 
L 128.48663 306.135771 
z
" style="fill:#2ca02c;opacity:0.6;"/>
   </g>
   <g id="patch_119">
    <path clip-path="url(#p12fe55ab0b)" d="M 133.212405 307.584 
L 137.93818 307.584 
L 137.93818 306.859886 
L 133.212405 306.859886 
z
" style="fill:#2ca02c;opacity:0.6;"/>
   </g>
   <g id="patch_120">
    <path clip-path="url(#p12fe55ab0b)" d="M 137.93818 307.584 
L 142.663956 307.584 
L 142.663956 306.859886 
L 137.93818 306.859886 
z
" style="fill:#2ca02c;opacity:0.6;"/>
   </g>
   <g id="patch_121">
    <path clip-path="url(#p12fe55ab0b)" d="M 142.663956 307.584 
L 147.389731 307.584 
L 147.389731 305.411657 
L 142.663956 305.411657 
z
" style="fill:#2ca02c;opacity:0.6;"/>
   </g>
   <g id="patch_122">
    <path clip-path="url(#p12fe55ab0b)" d="M 147.389731 307.584 
L 152.115506 307.584 
L 152.115506 307.221943 
L 147.389731 307.221943 
z
" style="fill:#2ca02c;opacity:0.6;"/>
   </g>
   <g id="patch_123">
    <path clip-path="url(#p12fe55ab0b)" d="M 152.115506 307.584 
L 156.841281 307.584 
L 156.841281 306.859886 
L 152.115506 306.859886 
z
" style="fill:#2ca02c;opacity:0.6;"/>
   </g>
   <g id="patch_124">
    <path clip-path="url(#p12fe55ab0b)" d="M 156.841281 307.584 
L 161.567057 307.584 
L 161.567057 307.221943 
L 156.841281 307.221943 
z
" style="fill:#2ca02c;opacity:0.6;"/>
   </g>
   <g id="patch_125">
    <path clip-path="url(#p12fe55ab0b)" d="M 161.567057 307.584 
L 166.292832 307.584 
L 166.292832 307.221943 
L 161.567057 307.221943 
z
" style="fill:#2ca02c;opacity:0.6;"/>
   </g>
   <g id="patch_126">
    <path clip-path="url(#p12fe55ab0b)" d="M 166.292832 307.584 
L 171.018607 307.584 
L 171.018607 306.859886 
L 166.292832 306.859886 
z
" style="fill:#2ca02c;opacity:0.6;"/>
   </g>
   <g id="patch_127">
    <path clip-path="url(#p12fe55ab0b)" d="M 171.018607 307.584 
L 175.744383 307.584 
L 175.744383 307.221943 
L 171.018607 307.221943 
z
" style="fill:#2ca02c;opacity:0.6;"/>
   </g>
   <g id="patch_128">
    <path clip-path="url(#p12fe55ab0b)" d="M 175.744383 307.584 
L 180.470158 307.584 
L 180.470158 307.584 
L 175.744383 307.584 
z
" style="fill:#2ca02c;opacity:0.6;"/>
   </g>
   <g id="patch_129">
    <path clip-path="url(#p12fe55ab0b)" d="M 180.470158 307.584 
L 185.195933 307.584 
L 185.195933 307.221943 
L 180.470158 307.221943 
z
" style="fill:#2ca02c;opacity:0.6;"/>
   </g>
   <g id="patch_130">
    <path clip-path="url(#p12fe55ab0b)" d="M 185.195933 307.584 
L 189.921709 307.584 
L 189.921709 307.221943 
L 185.195933 307.221943 
z
" style="fill:#2ca02c;opacity:0.6;"/>
   </g>
   <g id="patch_131">
    <path clip-path="url(#p12fe55ab0b)" d="M 189.921709 307.584 
L 194.647484 307.584 
L 194.647484 307.584 
L 189.921709 307.584 
z
" style="fill:#2ca02c;opacity:0.6;"/>
   </g>
   <g id="patch_132">
    <path clip-path="url(#p12fe55ab0b)" d="M 194.647484 307.584 
L 199.373259 307.584 
L 199.373259 307.584 
L 194.647484 307.584 
z
" style="fill:#2ca02c;opacity:0.6;"/>
   </g>
   <g id="patch_133">
    <path clip-path="url(#p12fe55ab0b)" d="M 199.373259 307.584 
L 204.099035 307.584 
L 204.099035 307.584 
L 199.373259 307.584 
z
" style="fill:#2ca02c;opacity:0.6;"/>
   </g>
   <g id="patch_134">
    <path clip-path="url(#p12fe55ab0b)" d="M 204.099035 307.584 
L 208.82481 307.584 
L 208.82481 307.221943 
L 204.099035 307.221943 
z
" style="fill:#2ca02c;opacity:0.6;"/>
   </g>
   <g id="patch_135">
    <path clip-path="url(#p12fe55ab0b)" d="M 208.82481 307.584 
L 213.550585 307.584 
L 213.550585 306.859886 
L 208.82481 306.859886 
z
" style="fill:#2ca02c;opacity:0.6;"/>
   </g>
   <g id="patch_136">
    <path clip-path="url(#p12fe55ab0b)" d="M 213.550585 307.584 
L 218.27636 307.584 
L 218.27636 307.221943 
L 213.550585 307.221943 
z
" style="fill:#2ca02c;opacity:0.6;"/>
   </g>
   <g id="patch_137">
    <path clip-path="url(#p12fe55ab0b)" d="M 218.27636 307.584 
L 223.002136 307.584 
L 223.002136 307.221943 
L 218.27636 307.221943 
z
" style="fill:#2ca02c;opacity:0.6;"/>
   </g>
   <g id="patch_138">
    <path clip-path="url(#p12fe55ab0b)" d="M 223.002136 307.584 
L 227.727911 307.584 
L 227.727911 306.859886 
L 223.002136 306.859886 
z
" style="fill:#2ca02c;opacity:0.6;"/>
   </g>
   <g id="patch_139">
    <path clip-path="url(#p12fe55ab0b)" d="M 227.727911 307.584 
L 232.453686 307.584 
L 232.453686 307.584 
L 227.727911 307.584 
z
" style="fill:#2ca02c;opacity:0.6;"/>
   </g>
   <g id="patch_140">
    <path clip-path="url(#p12fe55ab0b)" d="M 232.453686 307.584 
L 237.179462 307.584 
L 237.179462 307.584 
L 232.453686 307.584 
z
" style="fill:#2ca02c;opacity:0.6;"/>
   </g>
   <g id="patch_141">
    <path clip-path="url(#p12fe55ab0b)" d="M 237.179462 307.584 
L 241.905237 307.584 
L 241.905237 307.221943 
L 237.179462 307.221943 
z
" style="fill:#2ca02c;opacity:0.6;"/>
   </g>
   <g id="patch_142">
    <path clip-path="url(#p12fe55ab0b)" d="M 241.905237 307.584 
L 246.631012 307.584 
L 246.631012 307.584 
L 241.905237 307.584 
z
" style="fill:#2ca02c;opacity:0.6;"/>
   </g>
   <g id="patch_143">
    <path clip-path="url(#p12fe55ab0b)" d="M 246.631012 307.584 
L 251.356788 307.584 
L 251.356788 307.584 
L 246.631012 307.584 
z
" style="fill:#2ca02c;opacity:0.6;"/>
   </g>
   <g id="patch_144">
    <path clip-path="url(#p12fe55ab0b)" d="M 251.356788 307.584 
L 256.082563 307.584 
L 256.082563 307.584 
L 251.356788 307.584 
z
" style="fill:#2ca02c;opacity:0.6;"/>
   </g>
   <g id="patch_145">
    <path clip-path="url(#p12fe55ab0b)" d="M 256.082563 307.584 
L 260.808338 307.584 
L 260.808338 307.584 
L 256.082563 307.584 
z
" style="fill:#2ca02c;opacity:0.6;"/>
   </g>
   <g id="patch_146">
    <path clip-path="url(#p12fe55ab0b)" d="M 260.808338 307.584 
L 265.534114 307.584 
L 265.534114 307.584 
L 260.808338 307.584 
z
" style="fill:#2ca02c;opacity:0.6;"/>
   </g>
   <g id="patch_147">
    <path clip-path="url(#p12fe55ab0b)" d="M 265.534114 307.584 
L 270.259889 307.584 
L 270.259889 307.584 
L 265.534114 307.584 
z
" style="fill:#2ca02c;opacity:0.6;"/>
   </g>
   <g id="patch_148">
    <path clip-path="url(#p12fe55ab0b)" d="M 270.259889 307.584 
L 274.985664 307.584 
L 274.985664 307.584 
L 270.259889 307.584 
z
" style="fill:#2ca02c;opacity:0.6;"/>
   </g>
   <g id="patch_149">
    <path clip-path="url(#p12fe55ab0b)" d="M 274.985664 307.584 
L 279.711439 307.584 
L 279.711439 307.584 
L 274.985664 307.584 
z
" style="fill:#2ca02c;opacity:0.6;"/>
   </g>
   <g id="patch_150">
    <path clip-path="url(#p12fe55ab0b)" d="M 279.711439 307.584 
L 284.437215 307.584 
L 284.437215 306.859886 
L 279.711439 306.859886 
z
" style="fill:#2ca02c;opacity:0.6;"/>
   </g>
   <g id="patch_151">
    <path clip-path="url(#p12fe55ab0b)" d="M 284.437215 307.584 
L 289.16299 307.584 
L 289.16299 307.584 
L 284.437215 307.584 
z
" style="fill:#2ca02c;opacity:0.6;"/>
   </g>
   <g id="patch_152">
    <path clip-path="url(#p12fe55ab0b)" d="M 289.16299 307.584 
L 293.888765 307.584 
L 293.888765 307.221943 
L 289.16299 307.221943 
z
" style="fill:#2ca02c;opacity:0.6;"/>
   </g>
   <g id="matplotlib.axis_1">
    <g id="xtick_1">
     <g id="line2d_1">
      <defs>
       <path d="M 0 0 
L 0 3.5 
" id="m0b6dfbf22c" style="stroke:#000000;stroke-width:0.8;"/>
      </defs>
      <g>
       <use style="stroke:#000000;stroke-width:0.8;" x="57.6" xlink:href="#m0b6dfbf22c" y="307.584"/>
      </g>
     </g>
     <g id="text_1">
      <!-- 0 -->
      <defs>
       <path d="M 31.78125 66.40625 
Q 24.171875 66.40625 20.328125 58.90625 
Q 16.5 51.421875 16.5 36.375 
Q 16.5 21.390625 20.328125 13.890625 
Q 24.171875 6.390625 31.78125 6.390625 
Q 39.453125 6.390625 43.28125 13.890625 
Q 47.125 21.390625 47.125 36.375 
Q 47.125 51.421875 43.28125 58.90625 
Q 39.453125 66.40625 31.78125 66.40625 
z
M 31.78125 74.21875 
Q 44.046875 74.21875 50.515625 64.515625 
Q 56.984375 54.828125 56.984375 36.375 
Q 56.984375 17.96875 50.515625 8.265625 
Q 44.046875 -1.421875 31.78125 -1.421875 
Q 19.53125 -1.421875 13.0625 8.265625 
Q 6.59375 17.96875 6.59375 36.375 
Q 6.59375 54.828125 13.0625 64.515625 
Q 19.53125 74.21875 31.78125 74.21875 
z
" id="DejaVuSans-48"/>
      </defs>
      <g transform="translate(54.41875 322.182437)scale(0.1 -0.1)">
       <use xlink:href="#DejaVuSans-48"/>
      </g>
     </g>
    </g>
    <g id="xtick_2">
     <g id="line2d_2">
      <g>
       <use style="stroke:#000000;stroke-width:0.8;" x="97.28" xlink:href="#m0b6dfbf22c" y="307.584"/>
      </g>
     </g>
     <g id="text_2">
      <!-- 20 -->
      <defs>
       <path d="M 19.1875 8.296875 
L 53.609375 8.296875 
L 53.609375 0 
L 7.328125 0 
L 7.328125 8.296875 
Q 12.9375 14.109375 22.625 23.890625 
Q 32.328125 33.6875 34.8125 36.53125 
Q 39.546875 41.84375 41.421875 45.53125 
Q 43.3125 49.21875 43.3125 52.78125 
Q 43.3125 58.59375 39.234375 62.25 
Q 35.15625 65.921875 28.609375 65.921875 
Q 23.96875 65.921875 18.8125 64.3125 
Q 13.671875 62.703125 7.8125 59.421875 
L 7.8125 69.390625 
Q 13.765625 71.78125 18.9375 73 
Q 24.125 74.21875 28.421875 74.21875 
Q 39.75 74.21875 46.484375 68.546875 
Q 53.21875 62.890625 53.21875 53.421875 
Q 53.21875 48.921875 51.53125 44.890625 
Q 49.859375 40.875 45.40625 35.40625 
Q 44.1875 33.984375 37.640625 27.21875 
Q 31.109375 20.453125 19.1875 8.296875 
z
" id="DejaVuSans-50"/>
      </defs>
      <g transform="translate(90.9175 322.182437)scale(0.1 -0.1)">
       <use xlink:href="#DejaVuSans-50"/>
       <use x="63.623047" xlink:href="#DejaVuSans-48"/>
      </g>
     </g>
    </g>
    <g id="xtick_3">
     <g id="line2d_3">
      <g>
       <use style="stroke:#000000;stroke-width:0.8;" x="136.96" xlink:href="#m0b6dfbf22c" y="307.584"/>
      </g>
     </g>
     <g id="text_3">
      <!-- 40 -->
      <defs>
       <path d="M 37.796875 64.3125 
L 12.890625 25.390625 
L 37.796875 25.390625 
z
M 35.203125 72.90625 
L 47.609375 72.90625 
L 47.609375 25.390625 
L 58.015625 25.390625 
L 58.015625 17.1875 
L 47.609375 17.1875 
L 47.609375 0 
L 37.796875 0 
L 37.796875 17.1875 
L 4.890625 17.1875 
L 4.890625 26.703125 
z
" id="DejaVuSans-52"/>
      </defs>
      <g transform="translate(130.5975 322.182437)scale(0.1 -0.1)">
       <use xlink:href="#DejaVuSans-52"/>
       <use x="63.623047" xlink:href="#DejaVuSans-48"/>
      </g>
     </g>
    </g>
    <g id="xtick_4">
     <g id="line2d_4">
      <g>
       <use style="stroke:#000000;stroke-width:0.8;" x="176.64" xlink:href="#m0b6dfbf22c" y="307.584"/>
      </g>
     </g>
     <g id="text_4">
      <!-- 60 -->
      <defs>
       <path d="M 33.015625 40.375 
Q 26.375 40.375 22.484375 35.828125 
Q 18.609375 31.296875 18.609375 23.390625 
Q 18.609375 15.53125 22.484375 10.953125 
Q 26.375 6.390625 33.015625 6.390625 
Q 39.65625 6.390625 43.53125 10.953125 
Q 47.40625 15.53125 47.40625 23.390625 
Q 47.40625 31.296875 43.53125 35.828125 
Q 39.65625 40.375 33.015625 40.375 
z
M 52.59375 71.296875 
L 52.59375 62.3125 
Q 48.875 64.0625 45.09375 64.984375 
Q 41.3125 65.921875 37.59375 65.921875 
Q 27.828125 65.921875 22.671875 59.328125 
Q 17.53125 52.734375 16.796875 39.40625 
Q 19.671875 43.65625 24.015625 45.921875 
Q 28.375 48.1875 33.59375 48.1875 
Q 44.578125 48.1875 50.953125 41.515625 
Q 57.328125 34.859375 57.328125 23.390625 
Q 57.328125 12.15625 50.6875 5.359375 
Q 44.046875 -1.421875 33.015625 -1.421875 
Q 20.359375 -1.421875 13.671875 8.265625 
Q 6.984375 17.96875 6.984375 36.375 
Q 6.984375 53.65625 15.1875 63.9375 
Q 23.390625 74.21875 37.203125 74.21875 
Q 40.921875 74.21875 44.703125 73.484375 
Q 48.484375 72.75 52.59375 71.296875 
z
" id="DejaVuSans-54"/>
      </defs>
      <g transform="translate(170.2775 322.182437)scale(0.1 -0.1)">
       <use xlink:href="#DejaVuSans-54"/>
       <use x="63.623047" xlink:href="#DejaVuSans-48"/>
      </g>
     </g>
    </g>
    <g id="xtick_5">
     <g id="line2d_5">
      <g>
       <use style="stroke:#000000;stroke-width:0.8;" x="216.32" xlink:href="#m0b6dfbf22c" y="307.584"/>
      </g>
     </g>
     <g id="text_5">
      <!-- 80 -->
      <defs>
       <path d="M 31.78125 34.625 
Q 24.75 34.625 20.71875 30.859375 
Q 16.703125 27.09375 16.703125 20.515625 
Q 16.703125 13.921875 20.71875 10.15625 
Q 24.75 6.390625 31.78125 6.390625 
Q 38.8125 6.390625 42.859375 10.171875 
Q 46.921875 13.96875 46.921875 20.515625 
Q 46.921875 27.09375 42.890625 30.859375 
Q 38.875 34.625 31.78125 34.625 
z
M 21.921875 38.8125 
Q 15.578125 40.375 12.03125 44.71875 
Q 8.5 49.078125 8.5 55.328125 
Q 8.5 64.0625 14.71875 69.140625 
Q 20.953125 74.21875 31.78125 74.21875 
Q 42.671875 74.21875 48.875 69.140625 
Q 55.078125 64.0625 55.078125 55.328125 
Q 55.078125 49.078125 51.53125 44.71875 
Q 48 40.375 41.703125 38.8125 
Q 48.828125 37.15625 52.796875 32.3125 
Q 56.78125 27.484375 56.78125 20.515625 
Q 56.78125 9.90625 50.3125 4.234375 
Q 43.84375 -1.421875 31.78125 -1.421875 
Q 19.734375 -1.421875 13.25 4.234375 
Q 6.78125 9.90625 6.78125 20.515625 
Q 6.78125 27.484375 10.78125 32.3125 
Q 14.796875 37.15625 21.921875 38.8125 
z
M 18.3125 54.390625 
Q 18.3125 48.734375 21.84375 45.5625 
Q 25.390625 42.390625 31.78125 42.390625 
Q 38.140625 42.390625 41.71875 45.5625 
Q 45.3125 48.734375 45.3125 54.390625 
Q 45.3125 60.0625 41.71875 63.234375 
Q 38.140625 66.40625 31.78125 66.40625 
Q 25.390625 66.40625 21.84375 63.234375 
Q 18.3125 60.0625 18.3125 54.390625 
z
" id="DejaVuSans-56"/>
      </defs>
      <g transform="translate(209.9575 322.182437)scale(0.1 -0.1)">
       <use xlink:href="#DejaVuSans-56"/>
       <use x="63.623047" xlink:href="#DejaVuSans-48"/>
      </g>
     </g>
    </g>
    <g id="xtick_6">
     <g id="line2d_6">
      <g>
       <use style="stroke:#000000;stroke-width:0.8;" x="256" xlink:href="#m0b6dfbf22c" y="307.584"/>
      </g>
     </g>
     <g id="text_6">
      <!-- 100 -->
      <defs>
       <path d="M 12.40625 8.296875 
L 28.515625 8.296875 
L 28.515625 63.921875 
L 10.984375 60.40625 
L 10.984375 69.390625 
L 28.421875 72.90625 
L 38.28125 72.90625 
L 38.28125 8.296875 
L 54.390625 8.296875 
L 54.390625 0 
L 12.40625 0 
z
" id="DejaVuSans-49"/>
      </defs>
      <g transform="translate(246.45625 322.182437)scale(0.1 -0.1)">
       <use xlink:href="#DejaVuSans-49"/>
       <use x="63.623047" xlink:href="#DejaVuSans-48"/>
       <use x="127.246094" xlink:href="#DejaVuSans-48"/>
      </g>
     </g>
    </g>
    <g id="xtick_7">
     <g id="line2d_7">
      <g>
       <use style="stroke:#000000;stroke-width:0.8;" x="295.68" xlink:href="#m0b6dfbf22c" y="307.584"/>
      </g>
     </g>
     <g id="text_7">
      <!-- 120 -->
      <g transform="translate(286.13625 322.182437)scale(0.1 -0.1)">
       <use xlink:href="#DejaVuSans-49"/>
       <use x="63.623047" xlink:href="#DejaVuSans-50"/>
       <use x="127.246094" xlink:href="#DejaVuSans-48"/>
      </g>
     </g>
    </g>
    <g id="xtick_8">
     <g id="line2d_8">
      <g>
       <use style="stroke:#000000;stroke-width:0.8;" x="335.36" xlink:href="#m0b6dfbf22c" y="307.584"/>
      </g>
     </g>
     <g id="text_8">
      <!-- 140 -->
      <g transform="translate(325.81625 322.182437)scale(0.1 -0.1)">
       <use xlink:href="#DejaVuSans-49"/>
       <use x="63.623047" xlink:href="#DejaVuSans-52"/>
       <use x="127.246094" xlink:href="#DejaVuSans-48"/>
      </g>
     </g>
    </g>
    <g id="xtick_9">
     <g id="line2d_9">
      <g>
       <use style="stroke:#000000;stroke-width:0.8;" x="375.04" xlink:href="#m0b6dfbf22c" y="307.584"/>
      </g>
     </g>
     <g id="text_9">
      <!-- 160 -->
      <g transform="translate(365.49625 322.182437)scale(0.1 -0.1)">
       <use xlink:href="#DejaVuSans-49"/>
       <use x="63.623047" xlink:href="#DejaVuSans-54"/>
       <use x="127.246094" xlink:href="#DejaVuSans-48"/>
      </g>
     </g>
    </g>
    <g id="xtick_10">
     <g id="line2d_10">
      <g>
       <use style="stroke:#000000;stroke-width:0.8;" x="414.72" xlink:href="#m0b6dfbf22c" y="307.584"/>
      </g>
     </g>
     <g id="text_10">
      <!-- 180 -->
      <g transform="translate(405.17625 322.182437)scale(0.1 -0.1)">
       <use xlink:href="#DejaVuSans-49"/>
       <use x="63.623047" xlink:href="#DejaVuSans-56"/>
       <use x="127.246094" xlink:href="#DejaVuSans-48"/>
      </g>
     </g>
    </g>
    <g id="text_11">
     <!-- Intensity -->
     <defs>
      <path d="M 9.8125 72.90625 
L 19.671875 72.90625 
L 19.671875 0 
L 9.8125 0 
z
" id="DejaVuSans-73"/>
      <path d="M 54.890625 33.015625 
L 54.890625 0 
L 45.90625 0 
L 45.90625 32.71875 
Q 45.90625 40.484375 42.875 44.328125 
Q 39.84375 48.1875 33.796875 48.1875 
Q 26.515625 48.1875 22.3125 43.546875 
Q 18.109375 38.921875 18.109375 30.90625 
L 18.109375 0 
L 9.078125 0 
L 9.078125 54.6875 
L 18.109375 54.6875 
L 18.109375 46.1875 
Q 21.34375 51.125 25.703125 53.5625 
Q 30.078125 56 35.796875 56 
Q 45.21875 56 50.046875 50.171875 
Q 54.890625 44.34375 54.890625 33.015625 
z
" id="DejaVuSans-110"/>
      <path d="M 18.3125 70.21875 
L 18.3125 54.6875 
L 36.8125 54.6875 
L 36.8125 47.703125 
L 18.3125 47.703125 
L 18.3125 18.015625 
Q 18.3125 11.328125 20.140625 9.421875 
Q 21.96875 7.515625 27.59375 7.515625 
L 36.8125 7.515625 
L 36.8125 0 
L 27.59375 0 
Q 17.1875 0 13.234375 3.875 
Q 9.28125 7.765625 9.28125 18.015625 
L 9.28125 47.703125 
L 2.6875 47.703125 
L 2.6875 54.6875 
L 9.28125 54.6875 
L 9.28125 70.21875 
z
" id="DejaVuSans-116"/>
      <path d="M 56.203125 29.59375 
L 56.203125 25.203125 
L 14.890625 25.203125 
Q 15.484375 15.921875 20.484375 11.0625 
Q 25.484375 6.203125 34.421875 6.203125 
Q 39.59375 6.203125 44.453125 7.46875 
Q 49.3125 8.734375 54.109375 11.28125 
L 54.109375 2.78125 
Q 49.265625 0.734375 44.1875 -0.34375 
Q 39.109375 -1.421875 33.890625 -1.421875 
Q 20.796875 -1.421875 13.15625 6.1875 
Q 5.515625 13.8125 5.515625 26.8125 
Q 5.515625 40.234375 12.765625 48.109375 
Q 20.015625 56 32.328125 56 
Q 43.359375 56 49.78125 48.890625 
Q 56.203125 41.796875 56.203125 29.59375 
z
M 47.21875 32.234375 
Q 47.125 39.59375 43.09375 43.984375 
Q 39.0625 48.390625 32.421875 48.390625 
Q 24.90625 48.390625 20.390625 44.140625 
Q 15.875 39.890625 15.1875 32.171875 
z
" id="DejaVuSans-101"/>
      <path d="M 44.28125 53.078125 
L 44.28125 44.578125 
Q 40.484375 46.53125 36.375 47.5 
Q 32.28125 48.484375 27.875 48.484375 
Q 21.1875 48.484375 17.84375 46.4375 
Q 14.5 44.390625 14.5 40.28125 
Q 14.5 37.15625 16.890625 35.375 
Q 19.28125 33.59375 26.515625 31.984375 
L 29.59375 31.296875 
Q 39.15625 29.25 43.1875 25.515625 
Q 47.21875 21.78125 47.21875 15.09375 
Q 47.21875 7.46875 41.1875 3.015625 
Q 35.15625 -1.421875 24.609375 -1.421875 
Q 20.21875 -1.421875 15.453125 -0.5625 
Q 10.6875 0.296875 5.421875 2 
L 5.421875 11.28125 
Q 10.40625 8.6875 15.234375 7.390625 
Q 20.0625 6.109375 24.8125 6.109375 
Q 31.15625 6.109375 34.5625 8.28125 
Q 37.984375 10.453125 37.984375 14.40625 
Q 37.984375 18.0625 35.515625 20.015625 
Q 33.0625 21.96875 24.703125 23.78125 
L 21.578125 24.515625 
Q 13.234375 26.265625 9.515625 29.90625 
Q 5.8125 33.546875 5.8125 39.890625 
Q 5.8125 47.609375 11.28125 51.796875 
Q 16.75 56 26.8125 56 
Q 31.78125 56 36.171875 55.265625 
Q 40.578125 54.546875 44.28125 53.078125 
z
" id="DejaVuSans-115"/>
      <path d="M 9.421875 54.6875 
L 18.40625 54.6875 
L 18.40625 0 
L 9.421875 0 
z
M 9.421875 75.984375 
L 18.40625 75.984375 
L 18.40625 64.59375 
L 9.421875 64.59375 
z
" id="DejaVuSans-105"/>
      <path d="M 32.171875 -5.078125 
Q 28.375 -14.84375 24.75 -17.8125 
Q 21.140625 -20.796875 15.09375 -20.796875 
L 7.90625 -20.796875 
L 7.90625 -13.28125 
L 13.1875 -13.28125 
Q 16.890625 -13.28125 18.9375 -11.515625 
Q 21 -9.765625 23.484375 -3.21875 
L 25.09375 0.875 
L 2.984375 54.6875 
L 12.5 54.6875 
L 29.59375 11.921875 
L 46.6875 54.6875 
L 56.203125 54.6875 
z
" id="DejaVuSans-121"/>
     </defs>
     <g transform="translate(214.3975 335.860562)scale(0.1 -0.1)">
      <use xlink:href="#DejaVuSans-73"/>
      <use x="29.492188" xlink:href="#DejaVuSans-110"/>
      <use x="92.871094" xlink:href="#DejaVuSans-116"/>
      <use x="132.080078" xlink:href="#DejaVuSans-101"/>
      <use x="193.603516" xlink:href="#DejaVuSans-110"/>
      <use x="256.982422" xlink:href="#DejaVuSans-115"/>
      <use x="309.082031" xlink:href="#DejaVuSans-105"/>
      <use x="336.865234" xlink:href="#DejaVuSans-116"/>
      <use x="376.074219" xlink:href="#DejaVuSans-121"/>
     </g>
    </g>
   </g>
   <g id="matplotlib.axis_2">
    <g id="ytick_1">
     <g id="line2d_11">
      <defs>
       <path d="M 0 0 
L -3.5 0 
" id="mfd81d32c45" style="stroke:#000000;stroke-width:0.8;"/>
      </defs>
      <g>
       <use style="stroke:#000000;stroke-width:0.8;" x="57.6" xlink:href="#mfd81d32c45" y="307.584"/>
      </g>
     </g>
     <g id="text_12">
      <!-- 0.00 -->
      <defs>
       <path d="M 10.6875 12.40625 
L 21 12.40625 
L 21 0 
L 10.6875 0 
z
" id="DejaVuSans-46"/>
      </defs>
      <g transform="translate(28.334375 311.383219)scale(0.1 -0.1)">
       <use xlink:href="#DejaVuSans-48"/>
       <use x="63.623047" xlink:href="#DejaVuSans-46"/>
       <use x="95.410156" xlink:href="#DejaVuSans-48"/>
       <use x="159.033203" xlink:href="#DejaVuSans-48"/>
      </g>
     </g>
    </g>
    <g id="ytick_2">
     <g id="line2d_12">
      <g>
       <use style="stroke:#000000;stroke-width:0.8;" x="57.6" xlink:href="#mfd81d32c45" y="266.844245"/>
      </g>
     </g>
     <g id="text_13">
      <!-- 0.02 -->
      <g transform="translate(28.334375 270.643464)scale(0.1 -0.1)">
       <use xlink:href="#DejaVuSans-48"/>
       <use x="63.623047" xlink:href="#DejaVuSans-46"/>
       <use x="95.410156" xlink:href="#DejaVuSans-48"/>
       <use x="159.033203" xlink:href="#DejaVuSans-50"/>
      </g>
     </g>
    </g>
    <g id="ytick_3">
     <g id="line2d_13">
      <g>
       <use style="stroke:#000000;stroke-width:0.8;" x="57.6" xlink:href="#mfd81d32c45" y="226.104491"/>
      </g>
     </g>
     <g id="text_14">
      <!-- 0.04 -->
      <g transform="translate(28.334375 229.903709)scale(0.1 -0.1)">
       <use xlink:href="#DejaVuSans-48"/>
       <use x="63.623047" xlink:href="#DejaVuSans-46"/>
       <use x="95.410156" xlink:href="#DejaVuSans-48"/>
       <use x="159.033203" xlink:href="#DejaVuSans-52"/>
      </g>
     </g>
    </g>
    <g id="ytick_4">
     <g id="line2d_14">
      <g>
       <use style="stroke:#000000;stroke-width:0.8;" x="57.6" xlink:href="#mfd81d32c45" y="185.364736"/>
      </g>
     </g>
     <g id="text_15">
      <!-- 0.06 -->
      <g transform="translate(28.334375 189.163955)scale(0.1 -0.1)">
       <use xlink:href="#DejaVuSans-48"/>
       <use x="63.623047" xlink:href="#DejaVuSans-46"/>
       <use x="95.410156" xlink:href="#DejaVuSans-48"/>
       <use x="159.033203" xlink:href="#DejaVuSans-54"/>
      </g>
     </g>
    </g>
    <g id="ytick_5">
     <g id="line2d_15">
      <g>
       <use style="stroke:#000000;stroke-width:0.8;" x="57.6" xlink:href="#mfd81d32c45" y="144.624981"/>
      </g>
     </g>
     <g id="text_16">
      <!-- 0.08 -->
      <g transform="translate(28.334375 148.4242)scale(0.1 -0.1)">
       <use xlink:href="#DejaVuSans-48"/>
       <use x="63.623047" xlink:href="#DejaVuSans-46"/>
       <use x="95.410156" xlink:href="#DejaVuSans-48"/>
       <use x="159.033203" xlink:href="#DejaVuSans-56"/>
      </g>
     </g>
    </g>
    <g id="ytick_6">
     <g id="line2d_16">
      <g>
       <use style="stroke:#000000;stroke-width:0.8;" x="57.6" xlink:href="#mfd81d32c45" y="103.885226"/>
      </g>
     </g>
     <g id="text_17">
      <!-- 0.10 -->
      <g transform="translate(28.334375 107.684445)scale(0.1 -0.1)">
       <use xlink:href="#DejaVuSans-48"/>
       <use x="63.623047" xlink:href="#DejaVuSans-46"/>
       <use x="95.410156" xlink:href="#DejaVuSans-49"/>
       <use x="159.033203" xlink:href="#DejaVuSans-48"/>
      </g>
     </g>
    </g>
    <g id="ytick_7">
     <g id="line2d_17">
      <g>
       <use style="stroke:#000000;stroke-width:0.8;" x="57.6" xlink:href="#mfd81d32c45" y="63.145472"/>
      </g>
     </g>
     <g id="text_18">
      <!-- 0.12 -->
      <g transform="translate(28.334375 66.94469)scale(0.1 -0.1)">
       <use xlink:href="#DejaVuSans-48"/>
       <use x="63.623047" xlink:href="#DejaVuSans-46"/>
       <use x="95.410156" xlink:href="#DejaVuSans-49"/>
       <use x="159.033203" xlink:href="#DejaVuSans-50"/>
      </g>
     </g>
    </g>
    <g id="text_19">
     <!-- Frequency -->
     <defs>
      <path d="M 9.8125 72.90625 
L 51.703125 72.90625 
L 51.703125 64.59375 
L 19.671875 64.59375 
L 19.671875 43.109375 
L 48.578125 43.109375 
L 48.578125 34.8125 
L 19.671875 34.8125 
L 19.671875 0 
L 9.8125 0 
z
" id="DejaVuSans-70"/>
      <path d="M 41.109375 46.296875 
Q 39.59375 47.171875 37.8125 47.578125 
Q 36.03125 48 33.890625 48 
Q 26.265625 48 22.1875 43.046875 
Q 18.109375 38.09375 18.109375 28.8125 
L 18.109375 0 
L 9.078125 0 
L 9.078125 54.6875 
L 18.109375 54.6875 
L 18.109375 46.1875 
Q 20.953125 51.171875 25.484375 53.578125 
Q 30.03125 56 36.53125 56 
Q 37.453125 56 38.578125 55.875 
Q 39.703125 55.765625 41.0625 55.515625 
z
" id="DejaVuSans-114"/>
      <path d="M 14.796875 27.296875 
Q 14.796875 17.390625 18.875 11.75 
Q 22.953125 6.109375 30.078125 6.109375 
Q 37.203125 6.109375 41.296875 11.75 
Q 45.40625 17.390625 45.40625 27.296875 
Q 45.40625 37.203125 41.296875 42.84375 
Q 37.203125 48.484375 30.078125 48.484375 
Q 22.953125 48.484375 18.875 42.84375 
Q 14.796875 37.203125 14.796875 27.296875 
z
M 45.40625 8.203125 
Q 42.578125 3.328125 38.25 0.953125 
Q 33.9375 -1.421875 27.875 -1.421875 
Q 17.96875 -1.421875 11.734375 6.484375 
Q 5.515625 14.40625 5.515625 27.296875 
Q 5.515625 40.1875 11.734375 48.09375 
Q 17.96875 56 27.875 56 
Q 33.9375 56 38.25 53.625 
Q 42.578125 51.265625 45.40625 46.390625 
L 45.40625 54.6875 
L 54.390625 54.6875 
L 54.390625 -20.796875 
L 45.40625 -20.796875 
z
" id="DejaVuSans-113"/>
      <path d="M 8.5 21.578125 
L 8.5 54.6875 
L 17.484375 54.6875 
L 17.484375 21.921875 
Q 17.484375 14.15625 20.5 10.265625 
Q 23.53125 6.390625 29.59375 6.390625 
Q 36.859375 6.390625 41.078125 11.03125 
Q 45.3125 15.671875 45.3125 23.6875 
L 45.3125 54.6875 
L 54.296875 54.6875 
L 54.296875 0 
L 45.3125 0 
L 45.3125 8.40625 
Q 42.046875 3.421875 37.71875 1 
Q 33.40625 -1.421875 27.6875 -1.421875 
Q 18.265625 -1.421875 13.375 4.4375 
Q 8.5 10.296875 8.5 21.578125 
z
M 31.109375 56 
z
" id="DejaVuSans-117"/>
      <path d="M 48.78125 52.59375 
L 48.78125 44.1875 
Q 44.96875 46.296875 41.140625 47.34375 
Q 37.3125 48.390625 33.40625 48.390625 
Q 24.65625 48.390625 19.8125 42.84375 
Q 14.984375 37.3125 14.984375 27.296875 
Q 14.984375 17.28125 19.8125 11.734375 
Q 24.65625 6.203125 33.40625 6.203125 
Q 37.3125 6.203125 41.140625 7.25 
Q 44.96875 8.296875 48.78125 10.40625 
L 48.78125 2.09375 
Q 45.015625 0.34375 40.984375 -0.53125 
Q 36.96875 -1.421875 32.421875 -1.421875 
Q 20.0625 -1.421875 12.78125 6.34375 
Q 5.515625 14.109375 5.515625 27.296875 
Q 5.515625 40.671875 12.859375 48.328125 
Q 20.21875 56 33.015625 56 
Q 37.15625 56 41.109375 55.140625 
Q 45.0625 54.296875 48.78125 52.59375 
z
" id="DejaVuSans-99"/>
     </defs>
     <g transform="translate(22.254687 200.825656)rotate(-90)scale(0.1 -0.1)">
      <use xlink:href="#DejaVuSans-70"/>
      <use x="57.410156" xlink:href="#DejaVuSans-114"/>
      <use x="98.492188" xlink:href="#DejaVuSans-101"/>
      <use x="160.015625" xlink:href="#DejaVuSans-113"/>
      <use x="223.492188" xlink:href="#DejaVuSans-117"/>
      <use x="286.871094" xlink:href="#DejaVuSans-101"/>
      <use x="348.394531" xlink:href="#DejaVuSans-110"/>
      <use x="411.773438" xlink:href="#DejaVuSans-99"/>
      <use x="466.753906" xlink:href="#DejaVuSans-121"/>
     </g>
    </g>
   </g>
   <g id="patch_153">
    <path d="M 57.6 307.584 
L 57.6 41.472 
" style="fill:none;stroke:#000000;stroke-linecap:square;stroke-linejoin:miter;stroke-width:0.8;"/>
   </g>
   <g id="patch_154">
    <path d="M 414.72 307.584 
L 414.72 41.472 
" style="fill:none;stroke:#000000;stroke-linecap:square;stroke-linejoin:miter;stroke-width:0.8;"/>
   </g>
   <g id="patch_155">
    <path d="M 57.6 307.584 
L 414.72 307.584 
" style="fill:none;stroke:#000000;stroke-linecap:square;stroke-linejoin:miter;stroke-width:0.8;"/>
   </g>
   <g id="patch_156">
    <path d="M 57.6 41.472 
L 414.72 41.472 
" style="fill:none;stroke:#000000;stroke-linecap:square;stroke-linejoin:miter;stroke-width:0.8;"/>
   </g>
   <g id="legend_1">
    <g id="patch_157">
     <path d="M 305.73875 93.506375 
L 407.72 93.506375 
Q 409.72 93.506375 409.72 91.506375 
L 409.72 48.472 
Q 409.72 46.472 407.72 46.472 
L 305.73875 46.472 
Q 303.73875 46.472 303.73875 48.472 
L 303.73875 91.506375 
Q 303.73875 93.506375 305.73875 93.506375 
z
" style="fill:#ffffff;opacity:0.8;stroke:#cccccc;stroke-linejoin:miter;"/>
    </g>
    <g id="patch_158">
     <path d="M 307.73875 58.070438 
L 327.73875 58.070438 
L 327.73875 51.070438 
L 307.73875 51.070438 
z
" style="fill:#1f77b4;opacity:0.4;"/>
    </g>
    <g id="text_20">
     <!-- background -->
     <defs>
      <path d="M 48.6875 27.296875 
Q 48.6875 37.203125 44.609375 42.84375 
Q 40.53125 48.484375 33.40625 48.484375 
Q 26.265625 48.484375 22.1875 42.84375 
Q 18.109375 37.203125 18.109375 27.296875 
Q 18.109375 17.390625 22.1875 11.75 
Q 26.265625 6.109375 33.40625 6.109375 
Q 40.53125 6.109375 44.609375 11.75 
Q 48.6875 17.390625 48.6875 27.296875 
z
M 18.109375 46.390625 
Q 20.953125 51.265625 25.265625 53.625 
Q 29.59375 56 35.59375 56 
Q 45.5625 56 51.78125 48.09375 
Q 58.015625 40.1875 58.015625 27.296875 
Q 58.015625 14.40625 51.78125 6.484375 
Q 45.5625 -1.421875 35.59375 -1.421875 
Q 29.59375 -1.421875 25.265625 0.953125 
Q 20.953125 3.328125 18.109375 8.203125 
L 18.109375 0 
L 9.078125 0 
L 9.078125 75.984375 
L 18.109375 75.984375 
z
" id="DejaVuSans-98"/>
      <path d="M 34.28125 27.484375 
Q 23.390625 27.484375 19.1875 25 
Q 14.984375 22.515625 14.984375 16.5 
Q 14.984375 11.71875 18.140625 8.90625 
Q 21.296875 6.109375 26.703125 6.109375 
Q 34.1875 6.109375 38.703125 11.40625 
Q 43.21875 16.703125 43.21875 25.484375 
L 43.21875 27.484375 
z
M 52.203125 31.203125 
L 52.203125 0 
L 43.21875 0 
L 43.21875 8.296875 
Q 40.140625 3.328125 35.546875 0.953125 
Q 30.953125 -1.421875 24.3125 -1.421875 
Q 15.921875 -1.421875 10.953125 3.296875 
Q 6 8.015625 6 15.921875 
Q 6 25.140625 12.171875 29.828125 
Q 18.359375 34.515625 30.609375 34.515625 
L 43.21875 34.515625 
L 43.21875 35.40625 
Q 43.21875 41.609375 39.140625 45 
Q 35.0625 48.390625 27.6875 48.390625 
Q 23 48.390625 18.546875 47.265625 
Q 14.109375 46.140625 10.015625 43.890625 
L 10.015625 52.203125 
Q 14.9375 54.109375 19.578125 55.046875 
Q 24.21875 56 28.609375 56 
Q 40.484375 56 46.34375 49.84375 
Q 52.203125 43.703125 52.203125 31.203125 
z
" id="DejaVuSans-97"/>
      <path d="M 9.078125 75.984375 
L 18.109375 75.984375 
L 18.109375 31.109375 
L 44.921875 54.6875 
L 56.390625 54.6875 
L 27.390625 29.109375 
L 57.625 0 
L 45.90625 0 
L 18.109375 26.703125 
L 18.109375 0 
L 9.078125 0 
z
" id="DejaVuSans-107"/>
      <path d="M 45.40625 27.984375 
Q 45.40625 37.75 41.375 43.109375 
Q 37.359375 48.484375 30.078125 48.484375 
Q 22.859375 48.484375 18.828125 43.109375 
Q 14.796875 37.75 14.796875 27.984375 
Q 14.796875 18.265625 18.828125 12.890625 
Q 22.859375 7.515625 30.078125 7.515625 
Q 37.359375 7.515625 41.375 12.890625 
Q 45.40625 18.265625 45.40625 27.984375 
z
M 54.390625 6.78125 
Q 54.390625 -7.171875 48.1875 -13.984375 
Q 42 -20.796875 29.203125 -20.796875 
Q 24.46875 -20.796875 20.265625 -20.09375 
Q 16.0625 -19.390625 12.109375 -17.921875 
L 12.109375 -9.1875 
Q 16.0625 -11.328125 19.921875 -12.34375 
Q 23.78125 -13.375 27.78125 -13.375 
Q 36.625 -13.375 41.015625 -8.765625 
Q 45.40625 -4.15625 45.40625 5.171875 
L 45.40625 9.625 
Q 42.625 4.78125 38.28125 2.390625 
Q 33.9375 0 27.875 0 
Q 17.828125 0 11.671875 7.65625 
Q 5.515625 15.328125 5.515625 27.984375 
Q 5.515625 40.671875 11.671875 48.328125 
Q 17.828125 56 27.875 56 
Q 33.9375 56 38.28125 53.609375 
Q 42.625 51.21875 45.40625 46.390625 
L 45.40625 54.6875 
L 54.390625 54.6875 
z
" id="DejaVuSans-103"/>
      <path d="M 30.609375 48.390625 
Q 23.390625 48.390625 19.1875 42.75 
Q 14.984375 37.109375 14.984375 27.296875 
Q 14.984375 17.484375 19.15625 11.84375 
Q 23.34375 6.203125 30.609375 6.203125 
Q 37.796875 6.203125 41.984375 11.859375 
Q 46.1875 17.53125 46.1875 27.296875 
Q 46.1875 37.015625 41.984375 42.703125 
Q 37.796875 48.390625 30.609375 48.390625 
z
M 30.609375 56 
Q 42.328125 56 49.015625 48.375 
Q 55.71875 40.765625 55.71875 27.296875 
Q 55.71875 13.875 49.015625 6.21875 
Q 42.328125 -1.421875 30.609375 -1.421875 
Q 18.84375 -1.421875 12.171875 6.21875 
Q 5.515625 13.875 5.515625 27.296875 
Q 5.515625 40.765625 12.171875 48.375 
Q 18.84375 56 30.609375 56 
z
" id="DejaVuSans-111"/>
      <path d="M 45.40625 46.390625 
L 45.40625 75.984375 
L 54.390625 75.984375 
L 54.390625 0 
L 45.40625 0 
L 45.40625 8.203125 
Q 42.578125 3.328125 38.25 0.953125 
Q 33.9375 -1.421875 27.875 -1.421875 
Q 17.96875 -1.421875 11.734375 6.484375 
Q 5.515625 14.40625 5.515625 27.296875 
Q 5.515625 40.1875 11.734375 48.09375 
Q 17.96875 56 27.875 56 
Q 33.9375 56 38.25 53.625 
Q 42.578125 51.265625 45.40625 46.390625 
z
M 14.796875 27.296875 
Q 14.796875 17.390625 18.875 11.75 
Q 22.953125 6.109375 30.078125 6.109375 
Q 37.203125 6.109375 41.296875 11.75 
Q 45.40625 17.390625 45.40625 27.296875 
Q 45.40625 37.203125 41.296875 42.84375 
Q 37.203125 48.484375 30.078125 48.484375 
Q 22.953125 48.484375 18.875 42.84375 
Q 14.796875 37.203125 14.796875 27.296875 
z
" id="DejaVuSans-100"/>
     </defs>
     <g transform="translate(335.73875 58.070438)scale(0.1 -0.1)">
      <use xlink:href="#DejaVuSans-98"/>
      <use x="63.476562" xlink:href="#DejaVuSans-97"/>
      <use x="124.755859" xlink:href="#DejaVuSans-99"/>
      <use x="179.736328" xlink:href="#DejaVuSans-107"/>
      <use x="237.646484" xlink:href="#DejaVuSans-103"/>
      <use x="301.123047" xlink:href="#DejaVuSans-114"/>
      <use x="342.205078" xlink:href="#DejaVuSans-111"/>
      <use x="403.386719" xlink:href="#DejaVuSans-117"/>
      <use x="466.765625" xlink:href="#DejaVuSans-110"/>
      <use x="530.144531" xlink:href="#DejaVuSans-100"/>
     </g>
    </g>
    <g id="patch_159">
     <path d="M 307.73875 72.748563 
L 327.73875 72.748563 
L 327.73875 65.748563 
L 307.73875 65.748563 
z
" style="fill:#ff7f0e;opacity:0.5;"/>
    </g>
    <g id="text_21">
     <!-- measurement -->
     <defs>
      <path d="M 52 44.1875 
Q 55.375 50.25 60.0625 53.125 
Q 64.75 56 71.09375 56 
Q 79.640625 56 84.28125 50.015625 
Q 88.921875 44.046875 88.921875 33.015625 
L 88.921875 0 
L 79.890625 0 
L 79.890625 32.71875 
Q 79.890625 40.578125 77.09375 44.375 
Q 74.3125 48.1875 68.609375 48.1875 
Q 61.625 48.1875 57.5625 43.546875 
Q 53.515625 38.921875 53.515625 30.90625 
L 53.515625 0 
L 44.484375 0 
L 44.484375 32.71875 
Q 44.484375 40.625 41.703125 44.40625 
Q 38.921875 48.1875 33.109375 48.1875 
Q 26.21875 48.1875 22.15625 43.53125 
Q 18.109375 38.875 18.109375 30.90625 
L 18.109375 0 
L 9.078125 0 
L 9.078125 54.6875 
L 18.109375 54.6875 
L 18.109375 46.1875 
Q 21.1875 51.21875 25.484375 53.609375 
Q 29.78125 56 35.6875 56 
Q 41.65625 56 45.828125 52.96875 
Q 50 49.953125 52 44.1875 
z
" id="DejaVuSans-109"/>
     </defs>
     <g transform="translate(335.73875 72.748563)scale(0.1 -0.1)">
      <use xlink:href="#DejaVuSans-109"/>
      <use x="97.412109" xlink:href="#DejaVuSans-101"/>
      <use x="158.935547" xlink:href="#DejaVuSans-97"/>
      <use x="220.214844" xlink:href="#DejaVuSans-115"/>
      <use x="272.314453" xlink:href="#DejaVuSans-117"/>
      <use x="335.693359" xlink:href="#DejaVuSans-114"/>
      <use x="376.775391" xlink:href="#DejaVuSans-101"/>
      <use x="438.298828" xlink:href="#DejaVuSans-109"/>
      <use x="535.710938" xlink:href="#DejaVuSans-101"/>
      <use x="597.234375" xlink:href="#DejaVuSans-110"/>
      <use x="660.613281" xlink:href="#DejaVuSans-116"/>
     </g>
    </g>
    <g id="patch_160">
     <path d="M 307.73875 87.426688 
L 327.73875 87.426688 
L 327.73875 80.426688 
L 307.73875 80.426688 
z
" style="fill:#2ca02c;opacity:0.6;"/>
    </g>
    <g id="text_22">
     <!-- net signal -->
     <defs>
      <path id="DejaVuSans-32"/>
      <path d="M 9.421875 75.984375 
L 18.40625 75.984375 
L 18.40625 0 
L 9.421875 0 
z
" id="DejaVuSans-108"/>
     </defs>
     <g transform="translate(335.73875 87.426688)scale(0.1 -0.1)">
      <use xlink:href="#DejaVuSans-110"/>
      <use x="63.378906" xlink:href="#DejaVuSans-101"/>
      <use x="124.902344" xlink:href="#DejaVuSans-116"/>
      <use x="164.111328" xlink:href="#DejaVuSans-32"/>
      <use x="195.898438" xlink:href="#DejaVuSans-115"/>
      <use x="247.998047" xlink:href="#DejaVuSans-105"/>
      <use x="275.78125" xlink:href="#DejaVuSans-103"/>
      <use x="339.257812" xlink:href="#DejaVuSans-110"/>
      <use x="402.636719" xlink:href="#DejaVuSans-97"/>
      <use x="463.916016" xlink:href="#DejaVuSans-108"/>
     </g>
    </g>
   </g>
  </g>
 </g>
 <defs>
  <clipPath id="p12fe55ab0b">
   <rect height="266.112" width="357.12" x="57.6" y="41.472"/>
  </clipPath>
 </defs>
</svg>
